 <svg version="1.0" xmlns="http://www.w3.org/2000/svg"  width="450.000000pt" height="184.000000pt" viewBox="0 0 450.000000 184.000000"  preserveAspectRatio="xMidYMid meet">  <g transform="translate(0.000000,184.000000) scale(0.100000,-0.100000)" fill="#000000" stroke="none"> <path d="M204 1746 c-105 -51 -194 -98 -197 -103 -4 -6 0 -13 8 -17 9 -3 15 0 15 8 0 7 10 18 23 24 12 5 103 49 202 96 98 47 170 86 160 86 -11 -1 -106 -43 -211 -94z"/> <path d="M475 1784 c-66 -30 -124 -60 -130 -66 -7 -7 50 -9 182 -6 106 2 189 1 185 -2 -4 -4 -40 -21 -80 -38 l-72 -32 -260 0 c-143 0 -260 -3 -260 -7 0 -5 111 -7 247 -6 137 1 241 -1 233 -4 -94 -38 -481 -228 -505 -247 -18 -15 1 -16 243 -13 l263 2 -78 -37 c-241 -115 -412 -200 -429 -213 -17 -13 12 -14 251 -15 l270 0 -145 -69 c-196 -92 -373 -180 -384 -192 -6 -5 94 -9 260 -9 l269 0 -105 -51 c-58 -28 -115 -52 -127 -52 -11 -1 -20 -5 -18 -8 5 -7 -265 -145 -277 -141 -5 1 -7 -2 -3 -8 4 -7 90 -10 265 -7 142 2 257 0 254 -5 -3 -4 -9 -8 -14 -8 -15 0 -497 -237 -504 -248 -5 -8 71 -10 259 -9 177 1 258 -1 243 -8 -21 -8 -140 -64 -406 -190 -56 -26 -102 -51 -102 -55 0 -13 114 -19 317 -17 163 2 198 0 180 -10 -14 -8 -17 -12 -7 -12 8 0 26 6 40 14 16 9 53 14 105 14 76 -1 78 -1 50 -14 -16 -8 -23 -14 -15 -14 8 0 26 6 40 14 19 11 68 14 210 14 165 0 182 -1 160 -14 -14 -8 -19 -14 -12 -15 19 0 72 29 72 40 0 5 -79 7 -187 4 l-188 -4 65 32 65 33 285 3 c156 2 282 1 280 -1 -3 -3 -54 -27 -115 -56 -60 -28 -103 -51 -94 -51 24 0 259 111 259 123 0 5 -58 8 -142 6 -79 -2 -149 0 -155 4 -7 5 -13 5 -13 0 0 -4 -54 -9 -120 -11 -66 -1 -120 -1 -120 1 0 2 125 62 277 133 l277 129 -278 3 -279 2 89 43 c49 24 173 83 277 132 103 48 187 92 187 97 0 5 -112 7 -272 4 -212 -4 -267 -2 -248 7 40 18 348 166 440 211 l85 41 -274 3 -275 2 235 111 c129 61 245 115 258 120 13 5 21 12 18 15 -3 4 -127 -50 -274 -119 -256 -120 -272 -126 -352 -133 -62 -5 -82 -4 -77 5 4 6 11 11 17 11 5 0 89 39 186 88 l178 87 -169 3 c-116 2 -173 -1 -180 -9 -8 -8 30 -10 149 -5 l160 6 -185 -91 -185 -90 -183 -2 -184 -3 59 28 c32 15 144 69 248 119 105 50 199 95 211 99 11 4 152 10 313 12 161 1 295 7 298 11 3 4 -119 7 -270 5 -152 -2 -275 -2 -274 -1 1 1 88 42 192 91 315 148 345 163 345 172 0 5 -123 6 -272 3 l-273 -5 125 61 c69 34 193 94 277 133 83 40 152 76 152 79 1 4 -122 4 -271 2 l-273 -4 110 55 c142 70 121 72 -28 2 -101 -47 -123 -54 -195 -58 -45 -3 -79 -1 -76 4 3 4 9 8 14 8 5 0 58 22 117 50 59 27 100 50 91 50 -10 0 -70 -25 -134 -56 l-117 -56 -178 -1 c-97 -1 -176 0 -174 2 2 2 53 27 112 56 143 70 120 70 -32 -1z m950 -83 c-22 -10 -143 -68 -270 -128 -228 -109 -231 -110 -318 -116 -49 -2 -85 -2 -80 2 4 4 37 20 73 36 36 15 121 56 190 89 l125 61 -168 3 c-108 2 -174 -1 -185 -8 -12 -8 27 -10 148 -7 127 4 159 3 140 -6 -14 -6 -99 -46 -189 -89 l-163 -78 -172 1 -171 0 50 25 c28 13 103 49 169 79 65 31 116 58 114 61 -5 4 -258 -109 -343 -153 -34 -18 -37 -22 -21 -29 10 -4 93 -4 183 -1 91 3 162 2 157 -2 -5 -4 -38 -20 -74 -34 -64 -26 -71 -26 -327 -29 l-262 -3 52 26 c28 15 150 73 270 129 l219 103 91 3 c76 3 102 8 152 32 33 15 71 33 85 39 17 8 117 12 295 12 270 1 270 1 230 -18z m40 -250 c-6 -4 -133 -65 -282 -135 l-273 -127 -70 3 -71 3 190 89 c105 49 191 92 191 96 0 4 -84 6 -187 3 l-188 -4 65 33 65 33 280 5 c154 3 282 7 285 8 2 1 0 -2 -5 -7z m-735 -81 c0 -5 -5 -10 -10 -10 -6 0 -95 -39 -197 -87 l-187 -88 189 -5 188 -5 -79 -33 -79 -32 -263 2 -262 3 262 125 c258 123 263 125 347 131 48 3 87 6 89 7 1 1 2 -2 2 -8z m335 -21 c-22 -10 -106 -50 -187 -89 l-148 -70 -172 0 -173 0 125 60 c69 33 150 72 180 88 55 29 56 29 235 30 l180 1 -40 -20z m-335 -242 c0 -1 -88 -43 -195 -92 -107 -50 -195 -94 -195 -99 0 -4 86 -7 191 -5 l191 4 -69 -33 -69 -32 -279 -6 -280 -5 125 61 c269 132 416 199 450 203 44 5 130 8 130 4z m720 -200 c-14 -6 -131 -63 -260 -126 l-235 -115 -93 -5 c-91 -6 -114 0 -68 16 43 15 356 166 356 172 0 3 -82 5 -182 4 l-183 -2 55 24 c30 14 64 29 75 34 11 5 142 10 290 10 210 0 264 -3 245 -12z m-800 -107 c-47 -22 -136 -64 -197 -93 -62 -28 -113 -55 -113 -59 0 -3 84 -4 188 -2 l187 4 -72 -34 -72 -35 -259 -3 c-143 -2 -258 -1 -255 2 2 3 122 62 266 132 l262 127 75 0 75 0 -85 -39z m271 -50 l-183 -90 -176 0 -176 0 154 73 c85 40 169 81 185 90 25 13 62 16 205 17 l175 0 -184 -90z m459 -144 c-52 -24 -175 -82 -273 -129 -172 -83 -182 -87 -268 -93 -49 -4 -89 -4 -89 -1 0 4 24 17 53 29 125 54 347 167 337 173 -6 3 -86 4 -178 1 l-167 -6 70 35 70 34 270 0 270 1 -95 -44z m-635 -35 c-6 -4 -53 -28 -105 -52 -52 -23 -142 -66 -200 -95 l-105 -53 167 0 c116 -1 169 3 174 11 5 8 -31 9 -142 5 l-149 -7 194 95 194 95 161 0 161 -1 -255 -127 -255 -127 -270 -5 c-148 -3 -272 -4 -274 -3 -3 2 85 46 449 221 61 30 90 38 160 43 47 3 89 6 95 7 6 1 6 -1 0 -7z m714 -195 c-2 -2 -125 -60 -274 -129 -262 -121 -272 -125 -347 -129 -43 -2 -78 0 -78 4 0 5 6 8 13 8 18 0 368 166 368 175 -1 4 -81 7 -179 6 l-177 0 70 34 70 34 269 0 c148 1 267 -1 265 -3z m-779 -102 c-202 -92 -340 -159 -340 -167 0 -6 73 -6 183 -2 114 4 178 3 172 -2 -5 -6 -39 -22 -75 -37 l-65 -27 -263 3 -264 3 269 127 268 127 85 0 85 0 -55 -25z m370 -2 c-30 -15 -113 -55 -184 -90 l-129 -62 -172 2 -171 3 180 86 181 87 175 0 175 1 -55 -27z"/> <path d="M1543 1825 c-73 -31 -40 -36 227 -33 l260 3 -66 -33 c-36 -18 -73 -31 -81 -28 -8 3 -12 2 -9 -2 3 -5 -81 -51 -187 -103 l-192 -94 274 -5 274 -5 -119 -54 c-236 -107 -414 -194 -414 -203 0 -11 17 -10 25 2 4 6 21 16 38 24 18 7 145 66 284 130 l252 117 73 -2 c66 -3 80 0 143 31 l70 35 285 5 c157 3 287 4 289 3 2 -1 -12 -8 -30 -16 -19 -8 -142 -65 -273 -126 l-239 -112 -75 3 -74 3 178 84 c99 46 183 88 189 92 5 5 -68 9 -163 9 -116 0 -172 -4 -172 -11 0 -7 47 -9 146 -7 l145 3 -178 -87 c-98 -48 -183 -87 -190 -87 -6 -1 -13 -5 -15 -9 -1 -5 -34 -23 -72 -40 l-68 -32 -259 0 c-183 0 -260 -3 -265 -11 -5 -9 56 -10 241 -5 137 4 247 5 244 2 -2 -3 -72 -36 -154 -74 -188 -87 -369 -173 -375 -179 -19 -17 56 -22 280 -17 l255 5 -180 -86 c-99 -47 -219 -105 -267 -127 -49 -23 -88 -45 -88 -50 0 -5 113 -8 275 -6 l275 3 -42 -20 c-24 -11 -149 -72 -278 -135 l-235 -115 264 -3 265 -2 -264 -125 c-146 -69 -266 -125 -267 -125 -2 0 -3 -5 -3 -10 0 -7 90 -9 273 -6 l272 4 -75 -35 c-283 -130 -341 -158 -332 -161 6 -2 107 41 225 96 203 94 218 99 298 105 l84 7 -135 -65 c-74 -35 -162 -78 -195 -94 l-60 -30 185 -1 c123 0 180 -4 170 -10 -20 -13 167 -13 206 0 34 11 554 19 554 8 0 -5 -8 -8 -17 -9 -10 0 -13 -3 -7 -5 6 -3 23 0 37 5 65 25 21 30 -237 28 -145 -1 -263 -1 -261 1 2 2 54 27 117 56 274 126 408 191 408 198 0 5 -120 8 -267 8 l-268 0 257 119 c142 66 263 123 270 128 7 4 -108 10 -258 13 l-271 5 181 85 c100 46 214 100 255 119 41 19 70 36 64 38 -5 2 -129 -52 -274 -121 -262 -122 -266 -124 -346 -127 -45 -2 -79 -1 -75 2 4 4 76 39 159 77 84 39 170 80 190 91 l38 20 -185 -2 -185 -1 160 -6 160 -5 -54 -24 c-30 -13 -113 -52 -185 -87 l-130 -64 -170 1 c-167 0 -170 1 -136 17 19 9 138 67 265 130 l229 113 285 -1 c207 -1 286 1 289 10 3 8 -66 10 -267 8 -180 -2 -264 0 -249 7 13 5 106 49 208 98 102 49 205 98 229 108 24 11 41 22 38 25 -3 3 -126 -51 -273 -121 -268 -126 -268 -126 -335 -123 l-66 3 178 84 c99 46 179 88 179 93 0 6 -72 7 -187 4 l-188 -6 71 35 71 34 292 3 c160 2 291 6 291 10 0 5 -120 8 -267 8 l-267 0 159 76 c88 41 210 98 272 127 62 29 113 56 113 60 0 5 -121 7 -269 5 -148 -2 -269 -3 -268 -2 83 44 340 153 348 148 7 -4 9 -3 6 3 -4 6 35 29 88 54 52 24 95 48 95 52 0 4 -124 6 -275 5 -150 -2 -271 0 -267 3 4 4 59 29 122 57 170 75 327 151 312 152 -7 0 -121 -50 -254 -110 l-240 -111 -90 2 c-51 1 -93 -2 -96 -8 -4 -5 -34 -22 -67 -37 -60 -27 -62 -27 -339 -33 -203 -4 -277 -2 -272 6 4 6 11 11 16 11 5 0 123 54 264 120 l255 121 79 -3 79 -3 -193 -90 c-106 -49 -194 -94 -194 -99 0 -4 7 -5 16 -2 9 3 90 6 181 6 92 0 163 3 160 6 -4 4 -73 6 -154 6 l-148 -2 184 90 184 90 176 0 176 0 -120 -56 c-66 -30 -144 -67 -173 -80 -30 -14 -52 -28 -49 -31 4 -4 83 31 337 151 l45 21 -190 3 c-170 3 -187 5 -160 17 28 12 22 13 -73 14 -66 1 -111 -4 -125 -11 -16 -9 -103 -14 -297 -18 -151 -3 -277 -4 -279 -3 -2 2 11 9 30 17 19 9 27 15 19 15 -8 0 -30 -6 -47 -14z m1147 -605 c-270 -127 -276 -130 -344 -130 -39 0 -66 4 -60 8 5 5 91 46 191 93 101 46 183 86 183 89 0 3 -84 4 -187 2 -103 -2 -185 -1 -183 1 3 3 37 18 75 35 l70 31 265 1 265 0 -275 -130z m-450 50 c0 -5 -4 -10 -9 -10 -13 0 -354 -159 -366 -171 -5 -5 59 -9 165 -9 118 0 170 4 160 10 -9 6 -70 8 -148 6 -80 -3 -130 -1 -127 5 4 5 10 9 15 9 5 0 84 36 176 80 l167 80 171 0 171 0 -105 -49 c-58 -26 -175 -84 -260 -127 l-155 -79 -280 -3 c-153 -2 -277 -1 -275 1 3 2 73 36 155 75 83 38 200 94 260 123 98 47 119 54 195 59 47 4 86 7 88 8 1 1 2 -2 2 -8z m-14 -268 c-2 -4 -86 -46 -187 -92 l-182 -85 193 -5 192 -5 -73 -31 -74 -31 -280 -6 -280 -6 125 60 c388 188 401 193 480 200 41 3 79 6 83 7 5 1 6 -1 3 -6z m205 -87 l-174 -85 -176 0 -176 0 125 60 c69 32 145 70 170 84 43 24 52 25 225 25 l180 0 -174 -84z m-186 -173 c-6 -5 -94 -49 -197 -97 -104 -49 -188 -93 -188 -98 0 -6 66 -8 183 -4 l182 6 -80 -39 -80 -38 -265 -1 -265 0 50 23 c28 13 151 72 275 132 208 100 231 109 300 114 41 4 79 7 85 8 6 1 6 -1 0 -6z m724 -196 c-2 -2 -62 -31 -134 -64 -71 -33 -195 -90 -275 -126 -139 -64 -147 -67 -213 -64 l-68 3 186 85 c103 47 189 88 191 93 3 4 -74 7 -170 7 -124 0 -176 -3 -176 -11 0 -8 43 -10 153 -6 l152 5 -85 -41 c-47 -23 -164 -80 -260 -127 l-175 -85 -277 -5 c-152 -3 -274 -2 -270 2 4 3 117 59 252 123 249 119 305 138 387 133 45 -3 45 -3 -133 -87 -99 -46 -183 -88 -188 -92 -6 -5 69 -9 168 -9 125 0 175 3 170 11 -4 7 -53 9 -158 5 -83 -3 -144 -3 -136 0 8 4 98 48 200 97 102 50 217 106 255 124 l70 33 269 0 c148 0 267 -2 265 -4z m-4 -265 c-6 -5 -65 -34 -131 -64 -67 -31 -185 -85 -262 -122 -139 -65 -141 -66 -216 -63 l-76 3 183 84 c100 47 186 88 192 93 12 10 -302 9 -335 -2 -15 -5 34 -9 125 -9 l150 -2 -174 -84 -174 -85 -171 1 c-167 0 -170 1 -136 17 19 9 132 64 250 122 l215 105 270 5 c149 3 277 7 285 8 8 1 10 -1 5 -7z"/> <path d="M3128 1778 c-71 -34 -128 -65 -128 -70 0 -4 123 -8 273 -8 l272 0 -262 -125 c-144 -69 -269 -125 -277 -125 -8 0 -17 -4 -21 -9 -3 -6 97 -10 262 -11 147 0 268 -2 270 -4 2 -1 -54 -29 -124 -61 -71 -32 -189 -88 -263 -124 l-135 -66 271 -5 271 -5 -264 -124 c-145 -68 -261 -126 -259 -129 3 -2 20 2 38 11 524 246 519 244 600 249 43 3 75 1 72 -4 -3 -4 -9 -8 -14 -8 -14 0 -357 -160 -345 -161 6 0 93 0 195 1 117 1 181 -2 175 -8 -5 -6 -42 -24 -82 -41 l-71 -31 -261 0 c-162 0 -262 -4 -266 -10 -4 -7 77 -10 237 -10 l243 -1 -105 -50 c-58 -28 -148 -70 -201 -94 -52 -24 -127 -58 -165 -77 l-69 -33 273 -5 273 -5 -265 -124 c-147 -68 -266 -128 -266 -132 0 -5 117 -10 261 -11 l261 -3 -154 -72 c-84 -39 -202 -95 -263 -124 l-110 -52 55 -8 c30 -4 153 -6 274 -6 l218 2 -101 -49 c-56 -26 -100 -50 -98 -53 3 -2 60 21 127 52 114 52 128 56 187 53 l64 -3 -111 -50 c-61 -27 -106 -51 -101 -53 6 -2 63 21 127 52 l116 56 177 -1 176 -1 -110 -53 c-136 -66 -124 -72 17 -9 169 76 170 74 -52 74 l-195 1 79 34 78 35 279 3 c154 2 282 7 286 11 3 3 -110 6 -253 6 l-259 0 170 79 c214 98 332 158 340 171 4 7 -80 10 -257 11 l-263 0 45 20 c121 54 480 233 480 241 0 9 6 9 -290 9 l-225 0 75 37 c41 20 153 74 249 119 96 46 172 86 169 89 -3 2 -122 -51 -265 -119 -255 -122 -262 -124 -342 -129 -45 -3 -78 -2 -74 2 4 4 88 42 185 86 98 43 178 82 178 87 0 4 -82 7 -182 7 -132 -1 -178 -4 -165 -11 11 -6 74 -9 162 -7 79 2 143 2 142 2 -1 -1 -83 -39 -182 -85 l-180 -84 -174 3 -175 2 145 69 c79 37 191 90 249 118 58 27 119 55 136 62 22 9 103 11 297 9 147 -2 267 0 267 5 0 4 -116 7 -257 8 -142 0 -251 3 -243 6 92 35 500 234 500 245 0 4 -118 8 -262 9 l-263 1 90 41 c280 130 429 203 433 215 3 9 -52 12 -255 12 l-258 0 190 88 c282 132 307 144 301 149 -2 2 -122 -50 -265 -116 -252 -116 -263 -121 -343 -126 l-83 -6 40 21 c79 39 326 150 335 150 6 0 10 5 10 10 0 6 -67 10 -180 10 -113 0 -180 -4 -180 -10 0 -6 58 -10 153 -10 l152 0 -125 -59 c-69 -32 -177 -83 -240 -113 -63 -30 -128 -60 -145 -66 -31 -12 -560 -23 -547 -11 4 4 124 62 267 129 254 119 262 122 340 126 l80 4 -35 -17 c-19 -10 -104 -50 -188 -89 -84 -40 -156 -75 -159 -78 -11 -11 341 -6 357 4 10 7 -36 10 -148 8 l-163 -3 183 88 c100 48 188 85 195 83 7 -3 12 -1 10 5 -1 6 32 26 73 45 l75 34 278 -3 c152 -1 277 1 277 4 0 17 -51 20 -270 20 -208 0 -232 2 -205 14 17 8 23 14 15 14 -8 0 -35 -8 -59 -19 -31 -14 -63 -20 -115 -19 l-71 1 40 19 c22 10 34 19 27 19 -7 0 -27 -7 -45 -17 -26 -13 -66 -16 -223 -17 -152 -1 -188 1 -175 11 9 7 22 13 30 13 8 0 12 3 8 6 -7 8 -97 -28 -97 -38 0 -5 87 -8 193 -9 l192 0 -75 -36 -75 -37 -283 0 -282 -1 127 62 c71 34 121 61 113 61 -8 0 -72 -27 -142 -60z m1344 -259 c-4 -3 -126 -61 -272 -128 l-265 -122 -68 3 -68 3 83 37 c184 82 280 127 285 132 4 3 -79 6 -183 5 -142 -1 -180 -3 -155 -11 19 -5 90 -8 157 -6 68 2 120 0 116 -3 -4 -4 -45 -23 -92 -44 -47 -21 -120 -55 -162 -76 l-78 -39 -182 1 -183 0 65 30 c132 61 305 144 310 149 3 3 42 21 86 40 l81 35 266 0 c146 0 263 -3 259 -6z m-752 -82 c0 -2 -81 -41 -180 -87 -99 -45 -180 -85 -180 -89 0 -3 87 -5 192 -4 l193 2 -75 -37 -75 -37 -280 -3 c-153 -2 -277 -1 -275 2 3 2 64 31 135 64 72 33 193 90 270 126 129 61 145 66 208 66 37 0 67 -2 67 -3z m690 -214 c-41 -19 -127 -59 -190 -88 -63 -29 -149 -68 -190 -88 -60 -28 -90 -35 -152 -38 -42 -3 -75 -2 -72 0 6 7 293 141 334 157 19 7 31 14 25 15 -5 1 -95 1 -200 1 l-190 -1 80 39 80 39 275 0 275 0 -75 -36z m-370 -86 c-36 -17 -109 -53 -163 -79 l-99 -48 -180 2 -180 3 164 77 163 76 180 0 180 1 -65 -32z m-322 -233 c-6 -5 -151 -73 -301 -141 -31 -14 -55 -28 -53 -31 3 -2 90 -4 193 -3 109 1 184 -2 178 -7 -5 -5 -43 -23 -83 -40 l-72 -32 -273 0 -272 0 110 50 c61 28 184 86 275 129 155 74 169 79 234 80 38 1 67 -2 64 -5z m632 -240 c-74 -36 -198 -95 -275 -130 l-140 -65 -259 0 c-143 1 -261 2 -262 4 -1 1 77 39 174 85 l177 83 174 -3 175 -3 -163 -75 c-90 -41 -165 -78 -168 -83 -6 -10 36 7 229 96 87 40 158 74 158 77 0 3 -89 4 -197 3 l-198 -3 60 28 c33 15 71 33 85 39 17 8 113 12 295 12 l270 0 -135 -65z m-620 -24 c0 -5 -4 -10 -9 -10 -16 0 -361 -163 -356 -168 2 -3 87 -4 187 -3 109 1 179 -1 173 -7 -5 -5 -44 -23 -85 -41 l-75 -32 -263 3 -263 3 273 127 c256 120 277 128 343 131 39 2 71 4 73 5 1 1 2 -2 2 -8z m590 -258 c-356 -169 -363 -172 -449 -179 -48 -3 -72 -2 -66 4 6 5 88 45 183 88 94 44 172 83 172 87 0 10 -246 9 -320 -2 -41 -5 -14 -8 110 -9 132 -2 160 -5 140 -14 -14 -6 -92 -43 -175 -82 l-150 -70 -169 5 -169 5 64 29 c35 17 150 72 254 123 l190 93 275 0 275 0 -165 -78z m-594 -9 c-3 -5 -84 -44 -180 -88 -96 -44 -175 -84 -176 -88 0 -5 83 -7 185 -5 102 2 185 1 185 -2 0 -3 -34 -20 -74 -37 l-74 -33 -278 1 c-154 0 -272 3 -264 6 37 15 386 176 442 205 35 17 83 35 108 39 64 9 132 10 126 2z"/> <path d="M2038 1446 c-98 -45 -181 -86 -185 -89 -3 -4 76 -7 177 -7 101 0 181 2 178 6 -3 3 -74 5 -158 5 -84 -1 -151 1 -149 4 3 2 74 36 159 75 143 66 190 91 165 89 -6 0 -90 -38 -187 -83z"/> <path d="M4395 158 c-33 -17 -121 -60 -195 -95 -74 -35 -126 -63 -115 -63 21 0 385 175 385 184 0 10 -14 5 -75 -26z"/> </g> </svg> 