 <svg version="1.0" xmlns="http://www.w3.org/2000/svg"  width="1350.000000pt" height="552.000000pt" viewBox="0 0 1350.000000 552.000000"  preserveAspectRatio="xMidYMid meet">  <g transform="translate(0.000000,552.000000) scale(0.100000,-0.100000)" fill="#dec263" stroke="none"> <path d="M1175 5510 c4 -6 -9 -17 -29 -25 -19 -8 -37 -19 -41 -25 -3 -5 -14 -10 -24 -10 -10 0 -24 -7 -31 -15 -7 -8 -19 -15 -27 -15 -8 0 -58 -21 -111 -46 -53 -26 -113 -54 -132 -63 -19 -9 -41 -22 -48 -28 -7 -7 -22 -13 -31 -13 -10 0 -24 -7 -31 -15 -7 -8 -20 -15 -29 -15 -9 0 -25 -7 -35 -15 -11 -8 -28 -15 -38 -15 -10 0 -18 -4 -18 -10 0 -5 -12 -13 -27 -16 -15 -4 -34 -13 -41 -21 -7 -7 -22 -13 -31 -13 -10 0 -24 -7 -31 -15 -7 -8 -21 -15 -31 -15 -10 0 -21 -4 -24 -10 -3 -5 -30 -21 -58 -35 -58 -29 -73 -36 -102 -53 -11 -7 -27 -15 -35 -18 -8 -3 -22 -10 -30 -15 -8 -5 -26 -14 -40 -21 -22 -10 -23 -12 -6 -16 15 -3 207 82 266 119 8 5 22 12 30 15 8 3 22 10 30 15 8 5 22 12 30 15 28 11 145 66 160 74 8 5 35 19 60 30 25 12 52 26 60 31 8 5 22 12 30 15 27 10 85 36 100 45 8 5 21 11 28 14 6 3 18 7 25 10 6 3 19 9 27 14 15 9 128 61 190 88 19 8 42 19 50 24 16 10 31 16 55 24 8 2 15 11 15 20 0 11 -11 15 -41 15 -25 0 -38 -4 -34 -10z"/> <path d="M1750 5505 c0 -9 -8 -18 -17 -21 -23 -7 -83 -34 -103 -46 -8 -4 -22 -11 -30 -14 -25 -10 -144 -66 -160 -75 -8 -5 -22 -12 -30 -15 -8 -3 -22 -10 -30 -15 -8 -5 -22 -12 -30 -15 -8 -3 -28 -12 -45 -19 -16 -8 -37 -16 -45 -19 -8 -3 -22 -10 -30 -15 -36 -21 -141 -71 -151 -71 -19 0 -69 -41 -63 -52 4 -7 62 -8 173 -4 272 11 935 25 944 19 8 -5 -57 -53 -73 -53 -4 0 -30 -11 -57 -24 -82 -40 -235 -113 -287 -135 -49 -21 -60 -22 -650 -22 -331 -1 -648 -4 -706 -8 l-105 -7 65 -8 c36 -4 332 -9 657 -9 554 -2 666 -7 566 -28 -29 -6 -100 -36 -175 -75 -14 -8 -31 -14 -37 -14 -6 0 -29 -11 -51 -25 -23 -14 -54 -28 -70 -32 -17 -3 -30 -9 -30 -14 0 -5 -6 -9 -12 -9 -12 0 -44 -15 -253 -116 -49 -25 -96 -44 -102 -44 -7 0 -13 -4 -13 -9 0 -5 -14 -12 -30 -16 -17 -4 -30 -11 -30 -16 0 -5 -5 -9 -12 -9 -9 0 -292 -138 -368 -180 -8 -4 -33 -16 -55 -26 -22 -11 -44 -25 -48 -31 -4 -7 -19 -13 -31 -13 -13 0 -26 -7 -30 -15 -3 -8 -14 -15 -25 -15 -11 0 -23 -4 -26 -10 -3 -5 1 -10 10 -10 15 0 22 3 83 33 19 9 42 17 52 17 9 0 23 7 30 15 7 8 18 15 25 15 7 0 18 7 25 15 7 8 23 15 35 15 12 0 28 7 35 15 7 8 20 15 30 15 10 0 23 7 30 15 7 8 20 15 30 15 10 0 23 7 30 15 7 8 19 15 26 15 12 0 114 47 154 71 8 5 22 12 30 15 32 13 146 66 160 75 8 5 22 12 30 15 24 9 144 65 160 75 8 5 22 12 30 15 8 3 29 12 45 19 17 8 37 16 45 19 8 3 22 10 30 15 8 4 47 23 85 41 39 17 82 38 97 46 14 8 33 14 41 14 8 0 20 7 27 15 7 8 21 15 32 15 10 0 21 7 24 15 4 8 15 15 25 15 11 0 31 8 46 17 20 13 65 19 224 26 110 5 206 7 214 3 21 -8 19 -35 -2 -42 -10 -3 -31 -11 -48 -19 -16 -7 -37 -16 -45 -19 -8 -3 -22 -10 -30 -15 -14 -9 -128 -62 -160 -75 -8 -3 -22 -10 -30 -14 -8 -5 -32 -16 -52 -26 -21 -9 -55 -23 -75 -32 -21 -10 -45 -21 -53 -26 -8 -4 -22 -11 -30 -14 -32 -13 -146 -66 -160 -75 -8 -5 -22 -12 -30 -15 -27 -10 -85 -36 -100 -45 -8 -5 -22 -12 -30 -15 -8 -3 -28 -12 -43 -20 -16 -7 -34 -14 -42 -14 -7 0 -18 -7 -25 -15 -7 -8 -20 -15 -29 -15 -9 0 -29 -11 -46 -24 -26 -21 -28 -25 -15 -41 14 -16 38 -17 380 -9 467 11 634 11 640 0 6 -10 -29 -30 -195 -107 -71 -33 -143 -67 -158 -75 -24 -13 -84 -17 -360 -20 -744 -8 -1064 -18 -1080 -33 -8 -8 285 -20 413 -16 41 1 242 5 445 9 204 4 378 9 387 12 10 3 24 1 33 -3 16 -9 -8 -24 -140 -83 -38 -18 -110 -52 -160 -75 -49 -24 -121 -58 -160 -75 -38 -18 -110 -52 -158 -76 -49 -24 -95 -44 -103 -44 -8 0 -14 -4 -14 -10 0 -5 -12 -13 -27 -16 -16 -4 -47 -20 -71 -35 -24 -16 -51 -29 -61 -29 -10 0 -24 -7 -31 -15 -7 -8 -18 -15 -25 -15 -6 0 -32 -11 -56 -25 -24 -14 -51 -27 -59 -31 -8 -3 -27 -12 -42 -20 -14 -8 -33 -14 -41 -14 -8 0 -17 -7 -21 -15 -3 -8 -16 -15 -30 -15 -13 0 -26 -7 -30 -15 -3 -8 -15 -15 -26 -15 -11 0 -23 -7 -26 -15 -4 -8 -14 -15 -24 -15 -10 0 -25 -6 -33 -14 -7 -8 -25 -16 -38 -18 -13 -1 -23 -7 -22 -13 4 -18 29 -16 53 5 12 11 31 20 42 20 10 0 18 5 18 10 0 6 11 10 24 10 13 0 29 7 36 15 7 8 19 15 26 15 8 0 40 14 71 30 31 17 61 30 68 30 7 0 18 7 25 15 7 8 20 15 30 15 10 0 23 7 30 15 7 8 20 15 30 15 10 0 23 7 30 15 7 8 21 15 31 15 9 0 24 7 33 15 8 8 19 15 25 15 6 0 39 14 73 31 35 17 79 38 98 46 19 8 42 19 50 24 8 5 22 12 30 15 8 3 22 10 30 15 8 5 22 12 30 15 27 10 85 36 100 45 8 5 22 12 30 15 8 3 22 10 30 15 8 5 22 12 30 15 36 13 266 120 290 135 8 5 22 12 30 15 8 4 43 19 78 35 l62 29 235 0 c155 0 235 -4 235 -10 0 -6 -8 -13 -17 -16 -10 -3 -25 -10 -33 -15 -8 -5 -22 -12 -30 -15 -25 -10 -144 -66 -160 -75 -8 -5 -22 -12 -30 -15 -8 -3 -22 -10 -30 -15 -8 -5 -22 -12 -30 -15 -8 -3 -44 -20 -80 -36 -36 -17 -94 -44 -130 -61 -36 -16 -72 -34 -80 -38 -8 -5 -22 -12 -30 -15 -25 -10 -144 -66 -160 -75 -8 -5 -22 -12 -30 -15 -8 -4 -70 -33 -137 -65 -67 -33 -129 -59 -138 -59 -8 0 -15 -7 -15 -15 0 -8 8 -15 18 -15 9 0 247 0 529 0 310 0 514 -3 517 -9 5 -7 -131 -81 -149 -81 -3 0 -61 -27 -129 -59 l-124 -60 -704 -3 c-386 -1 -723 -5 -748 -8 l-45 -6 45 -8 c25 -4 335 -8 690 -9 414 -1 647 -6 650 -12 3 -5 -6 -12 -20 -15 -14 -3 -50 -17 -80 -32 -30 -15 -100 -47 -155 -73 -55 -25 -112 -52 -127 -60 -14 -8 -33 -15 -42 -15 -9 0 -16 -4 -16 -8 0 -5 -26 -19 -57 -32 -32 -12 -65 -29 -74 -36 -8 -8 -23 -14 -31 -14 -9 0 -21 -7 -28 -15 -7 -8 -20 -15 -30 -15 -10 0 -23 -7 -30 -15 -7 -8 -23 -15 -35 -15 -12 0 -28 -7 -35 -15 -7 -8 -20 -15 -30 -15 -10 0 -23 -7 -30 -15 -7 -8 -18 -15 -25 -15 -7 0 -18 -7 -25 -15 -7 -8 -23 -15 -35 -15 -12 0 -28 -7 -35 -15 -7 -8 -20 -15 -30 -15 -10 0 -23 -7 -30 -15 -7 -8 -23 -15 -35 -15 -13 0 -25 -7 -29 -15 -3 -8 -14 -15 -25 -15 -11 0 -26 -7 -35 -15 -8 -8 -23 -15 -34 -15 -11 0 -25 -7 -32 -15 -7 -8 -21 -15 -32 -15 -10 0 -21 -7 -24 -15 -4 -8 -16 -15 -28 -15 -11 -1 -34 -12 -51 -25 -28 -24 -29 -25 -7 -25 12 0 22 5 22 10 0 6 9 10 19 10 11 0 26 7 35 15 8 8 23 15 34 15 11 0 25 7 32 15 7 8 21 15 31 15 9 0 24 7 33 15 8 8 23 15 34 15 11 0 25 7 32 15 7 8 20 15 30 15 10 0 23 7 30 15 7 8 17 15 22 15 17 0 108 44 108 52 0 5 11 8 24 8 13 0 29 7 36 15 7 8 20 15 30 15 10 0 23 7 30 15 7 8 23 15 35 15 12 0 28 7 35 15 7 8 20 15 30 15 10 0 23 7 30 15 7 8 18 15 25 15 12 0 52 18 95 42 8 4 22 11 30 14 25 10 144 66 160 75 8 5 22 12 30 15 8 3 22 10 30 15 8 5 22 12 30 15 8 3 29 11 45 19 93 41 125 58 131 66 3 5 16 9 29 9 13 0 27 5 30 10 8 12 67 39 115 51 19 5 132 12 250 15 l215 7 -25 -26 c-14 -15 -35 -27 -46 -27 -12 0 -27 -7 -34 -15 -7 -8 -19 -15 -27 -15 -8 0 -27 -6 -41 -14 -15 -8 -34 -17 -42 -20 -8 -3 -22 -10 -30 -15 -8 -4 -46 -23 -85 -41 -38 -17 -77 -36 -85 -41 -8 -5 -22 -12 -30 -15 -27 -10 -85 -36 -100 -45 -8 -5 -22 -12 -30 -15 -29 -11 -85 -37 -100 -46 -8 -4 -22 -11 -30 -14 -8 -3 -44 -20 -80 -36 -36 -17 -94 -44 -130 -61 -36 -16 -72 -34 -80 -38 -8 -5 -22 -12 -30 -15 -98 -41 -135 -69 -109 -85 18 -11 896 3 1026 17 99 10 85 -16 -37 -73 -36 -17 -112 -53 -170 -81 -147 -69 -156 -72 -240 -70 -139 3 -1365 -13 -1399 -18 -22 -4 -30 -9 -24 -15 11 -11 1239 -14 1336 -3 49 6 57 4 57 -10 0 -10 -11 -19 -30 -23 -16 -3 -30 -9 -30 -14 0 -4 -10 -11 -22 -14 -13 -4 -66 -27 -118 -52 -103 -50 -123 -58 -157 -68 -13 -4 -23 -11 -23 -16 0 -5 -5 -9 -11 -9 -6 0 -43 -16 -83 -35 -40 -19 -78 -35 -85 -35 -6 0 -11 -4 -11 -10 0 -5 -5 -10 -11 -10 -10 0 -40 -12 -99 -39 -14 -6 -65 -34 -115 -61 -49 -27 -97 -53 -105 -56 -46 -19 -147 -71 -158 -82 -7 -6 -22 -12 -31 -12 -10 0 -24 -7 -31 -15 -7 -8 -18 -15 -25 -15 -7 0 -18 -7 -25 -15 -7 -8 -23 -15 -35 -15 -13 0 -25 -7 -29 -15 -3 -8 -14 -15 -24 -15 -11 0 -25 -7 -32 -15 -7 -8 -21 -15 -32 -15 -10 0 -21 -7 -24 -15 -4 -8 -14 -15 -24 -15 -11 0 -22 -4 -25 -10 -3 -6 5 -10 19 -10 13 0 26 3 28 8 3 7 30 20 116 58 20 9 44 20 52 25 8 5 22 12 30 15 21 9 142 65 160 75 8 4 35 18 60 29 25 12 52 26 60 31 8 5 22 12 30 15 22 9 93 44 110 54 8 5 60 29 115 55 55 26 107 51 115 56 8 5 22 12 30 15 32 13 210 97 240 113 18 10 141 67 190 89 19 8 42 19 50 23 8 5 25 13 37 19 13 5 41 18 64 30 36 17 70 20 245 26 230 7 266 0 188 -35 -27 -12 -56 -27 -64 -32 -8 -5 -22 -12 -30 -15 -27 -10 -85 -36 -100 -45 -8 -5 -22 -12 -30 -15 -8 -3 -43 -19 -77 -35 -35 -16 -67 -29 -72 -29 -5 0 -14 -7 -21 -15 -7 -8 -23 -15 -35 -15 -12 0 -28 -7 -35 -15 -7 -8 -17 -15 -23 -15 -6 0 -67 -27 -136 -61 -69 -33 -139 -66 -156 -73 -55 -25 -170 -79 -185 -87 -8 -5 -22 -12 -30 -15 -8 -3 -28 -12 -45 -19 -16 -8 -38 -16 -48 -19 -10 -3 -17 -12 -14 -19 3 -9 117 -11 539 -8 389 2 537 0 542 -8 4 -6 -4 -15 -19 -21 -25 -10 -256 -120 -336 -160 -33 -17 -79 -19 -505 -26 -707 -11 -691 -10 -680 -21 4 -4 236 -6 516 -6 471 2 565 -3 503 -23 -23 -8 -112 -49 -231 -108 -51 -25 -100 -46 -108 -46 -8 0 -14 -4 -14 -10 0 -5 -5 -10 -12 -10 -6 0 -70 -29 -142 -64 -72 -35 -162 -79 -201 -97 -38 -18 -76 -39 -83 -46 -7 -7 -18 -13 -25 -13 -15 0 -516 -250 -523 -261 -3 -5 -13 -9 -23 -9 -10 0 -24 -7 -31 -15 -7 -8 -20 -15 -30 -15 -10 0 -23 -7 -30 -15 -7 -8 -18 -15 -26 -15 -18 0 -85 -46 -77 -54 4 -3 20 -6 37 -6 22 0 38 8 56 30 14 17 30 30 37 30 11 0 114 48 153 71 8 5 25 13 37 18 11 6 24 15 28 20 3 6 17 11 29 11 13 0 29 7 36 15 7 8 20 15 30 15 10 0 23 7 30 15 7 8 20 15 30 15 10 0 23 7 30 15 7 8 20 15 30 15 10 0 23 7 30 15 7 8 19 15 27 15 13 0 48 15 93 41 8 5 22 12 30 15 8 3 22 10 30 15 8 5 22 12 30 15 8 3 22 10 30 15 8 5 22 12 30 15 29 11 85 37 100 46 8 4 22 11 30 14 28 12 325 155 340 165 8 5 22 12 30 15 20 8 141 64 160 75 8 4 47 23 85 43 l70 35 230 1 c127 1 238 2 248 1 21 -1 23 -31 2 -31 -15 0 -41 -11 -175 -73 -85 -39 -232 -111 -260 -127 -47 -26 -142 -70 -151 -70 -6 0 -17 -7 -25 -15 -9 -8 -24 -15 -33 -15 -10 0 -24 -7 -31 -15 -7 -8 -18 -15 -24 -15 -6 0 -51 -20 -101 -45 -49 -25 -94 -45 -101 -45 -6 0 -17 -7 -24 -15 -7 -8 -20 -15 -30 -15 -10 0 -23 -7 -30 -15 -7 -8 -23 -15 -35 -15 -12 0 -28 -7 -35 -15 -7 -8 -20 -15 -29 -15 -25 -1 -76 -46 -61 -55 7 -4 235 -5 507 -1 572 9 557 11 378 -70 -44 -20 -118 -55 -165 -77 l-85 -41 -190 -3 c-104 -2 -264 -7 -355 -12 -91 -4 -321 -8 -512 -7 -228 1 -347 -2 -345 -9 5 -14 30 -15 372 -15 325 -1 762 7 863 16 52 5 62 3 62 -10 0 -9 -8 -16 -17 -16 -10 0 -45 -13 -78 -29 -33 -16 -91 -44 -130 -61 -38 -17 -77 -36 -85 -41 -8 -5 -22 -12 -30 -15 -25 -10 -144 -66 -160 -75 -8 -5 -22 -12 -30 -15 -31 -13 -276 -130 -300 -143 -8 -5 -33 -17 -55 -26 -22 -10 -47 -22 -55 -27 -8 -4 -22 -11 -30 -14 -8 -3 -22 -10 -30 -15 -8 -5 -22 -12 -30 -15 -8 -3 -41 -19 -73 -35 -31 -16 -63 -29 -71 -29 -7 0 -19 -7 -26 -15 -7 -8 -19 -15 -27 -15 -8 0 -21 -7 -29 -15 -9 -8 -24 -15 -33 -15 -10 0 -24 -7 -31 -15 -7 -8 -21 -15 -32 -15 -10 0 -21 -7 -24 -15 -4 -8 -16 -15 -29 -15 -12 0 -28 -7 -35 -15 -7 -8 -21 -15 -31 -15 -23 0 -35 -18 -16 -25 7 -3 40 7 73 23 32 16 69 33 82 36 12 4 22 12 22 17 0 5 11 9 24 9 13 0 29 7 36 15 7 8 20 15 29 15 9 0 25 7 35 15 11 8 27 15 37 15 9 0 22 7 29 15 7 8 20 15 30 15 10 0 23 7 30 15 7 8 20 15 30 15 10 0 23 7 30 15 7 8 23 15 35 15 12 0 28 7 35 15 7 8 20 15 30 15 10 0 23 7 30 15 7 8 20 15 30 15 10 0 23 7 30 15 7 8 19 15 27 15 13 0 48 15 93 41 8 5 22 12 30 15 8 3 56 26 106 50 49 24 95 44 101 44 6 0 16 7 23 15 7 8 23 15 35 15 12 0 28 7 35 15 7 8 20 15 30 15 10 0 23 7 30 15 7 8 17 15 24 15 10 0 126 52 156 71 8 5 22 12 30 15 14 5 96 43 175 81 40 19 506 15 513 -4 2 -7 -4 -13 -13 -13 -9 0 -58 -20 -108 -44 -51 -24 -102 -47 -114 -51 -13 -3 -23 -11 -23 -16 0 -5 -11 -9 -24 -9 -13 0 -29 -7 -36 -15 -7 -8 -17 -15 -24 -15 -10 0 -126 -52 -156 -71 -8 -5 -22 -12 -30 -15 -29 -11 -85 -37 -100 -46 -8 -4 -22 -11 -30 -14 -32 -13 -146 -66 -160 -75 -8 -5 -22 -12 -30 -15 -8 -3 -41 -19 -73 -35 -31 -16 -63 -29 -70 -29 -7 0 -18 -5 -25 -12 -6 -6 -35 -22 -64 -34 -114 -48 -53 -63 222 -53 280 11 768 10 775 -1 3 -5 -25 -23 -62 -40 -129 -60 -148 -69 -246 -114 l-97 -45 -643 -6 c-353 -3 -712 -6 -796 -6 -120 1 -152 -2 -143 -11 9 -9 193 -13 732 -15 626 -3 793 -8 703 -21 -12 -2 -27 -10 -33 -18 -7 -8 -21 -14 -31 -14 -10 0 -21 -4 -24 -10 -4 -6 10 -10 34 -10 23 0 41 5 41 10 0 6 7 10 16 10 9 0 29 7 45 15 16 8 42 22 58 30 43 22 471 22 471 0 0 -8 -7 -15 -16 -15 -9 0 -28 -6 -42 -14 -15 -8 -36 -18 -47 -22 -17 -7 -14 -9 14 -12 18 -2 38 1 44 7 6 6 21 11 33 11 12 0 27 7 34 15 7 8 20 15 29 15 9 0 25 7 35 15 17 13 101 15 563 15 366 0 543 -3 543 -10 0 -6 -8 -13 -17 -16 -10 -3 -31 -11 -48 -19 -16 -7 -39 -17 -50 -21 -17 -7 -14 -9 14 -12 31 -3 59 5 101 29 8 5 37 18 63 30 32 15 47 27 45 38 -3 15 -53 16 -544 12 -323 -2 -544 0 -547 6 -3 5 18 19 46 32 29 13 81 37 117 54 36 16 83 37 105 47 22 10 65 29 95 43 l55 25 817 5 c690 5 817 4 822 -8 3 -9 -4 -16 -17 -20 -23 -7 -67 -27 -267 -124 -69 -34 -130 -61 -136 -61 -6 0 -17 -7 -24 -15 -7 -8 -23 -15 -35 -15 -12 0 -28 -7 -35 -15 -7 -8 -17 -15 -23 -15 -14 0 -97 -40 -97 -47 0 -16 98 9 166 42 94 45 174 83 269 125 39 17 82 38 97 46 14 8 33 14 42 14 9 0 16 4 16 9 0 5 10 13 23 16 12 4 38 13 57 22 113 49 110 47 108 73 l-3 25 -245 -3 c-1388 -18 -1496 -18 -1392 4 17 3 32 10 32 15 0 5 6 9 12 9 7 0 46 16 88 36 117 57 173 82 198 89 12 4 22 11 22 16 0 5 6 9 13 9 6 1 30 9 52 20 22 11 46 19 53 20 6 0 12 4 12 9 0 5 12 12 28 15 15 4 63 24 107 46 44 21 90 41 103 45 12 3 22 11 22 16 0 5 6 9 13 9 6 0 43 16 80 35 38 19 75 35 83 35 8 0 14 4 14 9 0 5 14 12 30 16 17 4 30 10 30 15 0 5 13 11 29 15 16 3 35 13 42 21 6 8 19 14 29 14 9 0 37 11 61 25 24 14 51 27 59 31 16 6 34 14 145 64 39 18 84 38 100 45 146 66 185 88 174 101 -8 10 -160 12 -825 7 -750 -5 -814 -4 -814 11 0 10 8 16 22 16 20 0 125 44 168 71 8 5 22 12 30 15 25 10 144 66 160 75 8 5 22 12 30 15 50 21 101 47 106 55 3 5 16 9 29 9 12 0 25 7 29 15 3 8 14 15 24 15 11 0 25 7 32 15 7 8 23 15 35 15 12 0 28 7 35 15 7 8 18 15 25 15 8 0 26 6 42 14 15 8 57 28 93 44 36 17 108 51 160 75 52 25 127 60 165 77 39 17 77 36 85 41 8 5 22 12 30 15 21 9 140 64 172 80 14 8 33 14 42 14 9 0 16 4 16 8 0 8 92 52 110 52 6 0 10 9 10 20 0 18 -7 20 -62 21 -118 1 -1403 -3 -1473 -5 -67 -1 -108 16 -53 22 14 2 32 10 38 18 7 8 18 14 24 14 10 0 52 19 199 92 31 15 62 28 68 28 6 0 17 7 25 15 9 8 24 15 33 15 10 0 24 7 31 15 7 8 18 15 25 15 7 0 37 14 68 30 31 17 63 30 71 30 7 0 19 7 26 15 7 8 21 15 31 15 11 0 19 4 19 9 0 5 10 13 23 16 21 6 195 88 227 106 8 5 22 12 30 15 28 11 262 123 300 143 68 36 144 71 156 71 8 0 20 5 27 11 7 5 46 27 86 48 41 21 77 43 79 49 4 14 67 13 -890 12 -515 -1 -728 2 -728 10 0 6 8 13 18 16 9 3 32 12 50 20 17 8 49 21 70 30 20 10 44 21 52 26 8 4 22 11 30 14 8 3 41 19 73 35 31 16 63 29 71 29 7 0 19 7 26 15 7 8 23 15 35 15 12 0 28 7 35 15 7 8 18 15 25 15 7 0 37 14 68 30 31 17 63 30 71 30 7 0 19 7 26 15 7 8 20 15 30 15 10 0 23 7 30 15 7 8 20 15 30 15 10 0 23 7 30 15 7 8 19 15 28 15 19 0 100 38 108 51 3 5 12 9 21 9 9 0 46 14 82 31 36 17 80 37 96 44 17 7 58 27 93 44 34 17 69 31 77 31 8 0 15 4 15 9 0 5 10 13 23 16 12 4 49 19 82 35 33 16 67 31 75 35 82 33 164 94 148 110 -6 6 -957 7 -967 0 -4 -2 -135 -7 -292 -10 -156 -3 -307 -8 -336 -11 -97 -10 -76 10 92 86 94 43 170 79 290 136 128 60 216 101 235 108 8 3 22 10 30 15 8 5 44 23 80 39 36 17 108 51 160 75 140 65 167 77 179 77 6 0 11 5 11 10 0 6 5 10 11 10 6 0 43 16 83 35 40 19 78 35 85 35 6 0 11 5 11 10 0 6 5 10 11 10 11 0 120 48 169 75 14 8 49 25 78 39 43 21 52 30 52 52 l0 26 -200 -5 c-110 -3 -205 -9 -211 -13 -17 -10 -1208 -8 -1212 3 -1 4 9 10 22 11 13 2 48 17 78 33 29 16 60 29 68 29 8 0 15 4 15 9 0 5 14 12 30 16 17 4 30 11 30 16 0 5 8 9 19 9 10 0 30 9 44 20 14 11 30 20 36 20 6 0 36 14 66 30 30 17 62 30 70 30 8 0 15 4 15 8 0 8 92 52 110 52 6 0 10 4 10 10 0 5 12 12 28 16 28 6 106 42 327 150 72 35 136 64 143 64 6 0 12 4 12 9 0 5 10 13 23 16 23 7 118 51 327 154 69 33 136 61 148 61 20 0 23 5 20 28 -2 21 -8 26 -23 24 -95 -16 -1589 -22 -1592 -7 -2 6 9 13 24 17 14 4 51 19 82 34 31 15 99 47 151 72 52 25 121 58 153 74 31 15 63 28 71 28 7 0 19 7 26 15 7 8 20 15 30 15 10 0 23 6 30 14 6 8 21 16 33 18 12 2 23 11 25 21 3 14 -4 17 -37 17 -29 0 -41 -4 -41 -14 0 -8 -21 -24 -47 -36 -27 -12 -55 -26 -63 -31 -8 -5 -22 -12 -30 -15 -27 -10 -85 -36 -100 -45 -8 -5 -22 -12 -30 -15 -31 -11 -107 -46 -270 -123 -36 -17 -69 -31 -74 -31 -5 0 -17 -6 -25 -14 -23 -20 -466 -27 -466 -8 0 13 50 37 103 49 13 3 26 12 29 19 3 8 15 14 28 14 12 0 28 7 35 15 7 8 20 15 30 15 10 0 23 7 30 15 7 8 23 15 35 15 12 0 28 7 35 15 7 8 20 15 29 15 9 0 25 7 35 15 11 8 27 15 37 15 9 0 22 7 29 15 7 8 21 15 31 15 9 0 24 7 33 15 8 8 20 15 26 15 7 0 24 6 38 14 15 8 35 17 45 20 32 10 20 36 -18 36 -24 0 -35 -5 -35 -14 0 -8 -10 -18 -22 -21 -23 -6 -139 -59 -168 -76 -8 -5 -22 -12 -30 -15 -29 -11 -85 -37 -100 -46 -8 -4 -22 -11 -30 -14 -8 -3 -44 -20 -80 -37 -36 -16 -81 -37 -100 -45 -19 -8 -42 -19 -50 -23 -8 -4 -33 -18 -55 -29 -37 -21 -55 -22 -385 -26 -190 -2 -435 -8 -545 -13 -110 -4 -204 -4 -209 1 -6 5 -3 8 7 8 10 0 25 9 34 20 10 11 23 20 30 20 7 0 21 4 31 9 9 5 67 33 127 61 61 29 117 56 125 61 8 5 22 12 30 15 8 3 44 20 80 37 36 16 81 37 100 45 19 8 42 19 50 24 16 9 32 15 55 23 8 2 15 11 15 20 0 11 -11 15 -40 15 -29 0 -40 -4 -40 -15z m2609 -354 c17 -11 6 -31 -16 -31 -9 0 -58 -20 -107 -44 -50 -24 -98 -47 -106 -50 -8 -3 -22 -10 -30 -15 -16 -10 -136 -66 -160 -75 -15 -6 -25 -11 -65 -34 -11 -7 -27 -15 -35 -18 -8 -3 -42 -19 -75 -34 -33 -15 -67 -31 -75 -34 -8 -3 -22 -10 -30 -15 -14 -9 -128 -62 -160 -75 -8 -3 -22 -10 -30 -15 -8 -5 -22 -12 -30 -15 -8 -3 -22 -10 -30 -15 -8 -5 -22 -12 -30 -15 -8 -3 -22 -10 -30 -15 -17 -9 -196 -95 -220 -105 -8 -3 -22 -10 -30 -15 -8 -4 -44 -22 -80 -38 -36 -17 -108 -51 -160 -76 l-95 -45 -230 -6 c-134 -4 -236 -3 -244 3 -15 10 -7 31 13 31 19 0 104 39 111 50 3 6 17 10 29 10 13 0 29 7 36 15 7 8 17 15 24 15 6 0 38 13 71 29 33 16 67 32 75 35 8 3 22 10 30 15 15 9 73 35 100 45 8 3 22 10 30 14 43 24 83 42 95 42 7 0 18 7 25 15 7 8 23 15 36 15 12 0 25 4 28 9 5 8 56 34 106 55 8 3 22 10 30 15 8 6 75 38 147 73 73 35 133 69 133 76 0 13 -372 15 -825 3 -132 -3 -241 -5 -243 -4 -9 4 21 43 33 43 8 0 63 23 122 51 59 28 144 68 188 88 l80 36 660 5 c363 3 719 6 790 7 72 2 136 -1 144 -6z m-1084 -251 c3 -5 -6 -12 -20 -16 -14 -3 -25 -10 -25 -14 0 -5 -10 -11 -22 -15 -24 -7 -57 -22 -233 -105 -60 -29 -132 -63 -160 -75 -87 -39 -326 -152 -537 -254 l-107 -51 -505 0 c-308 1 -508 5 -511 11 -4 5 8 12 25 15 17 4 33 11 36 15 3 5 14 9 24 9 10 0 25 7 33 15 8 7 26 17 41 21 14 3 26 10 26 14 0 5 13 11 30 15 16 4 30 10 30 15 0 5 10 12 23 15 21 6 119 51 179 81 14 8 33 14 42 14 9 0 16 4 16 10 0 5 12 13 27 16 15 4 38 13 52 20 14 8 32 14 39 14 6 0 12 4 12 9 0 5 10 13 23 16 12 4 49 19 82 35 33 16 67 31 75 34 8 3 22 10 30 15 8 5 63 33 121 61 l106 51 494 5 c271 3 495 7 498 10 8 8 50 4 56 -6z m1095 -565 c0 -9 -8 -18 -17 -21 -23 -7 -54 -21 -178 -79 -55 -26 -129 -61 -165 -78 -36 -16 -72 -34 -80 -38 -8 -5 -22 -12 -30 -15 -8 -3 -28 -12 -45 -19 -16 -8 -37 -16 -45 -19 -8 -3 -22 -10 -30 -15 -16 -10 -136 -66 -160 -75 -8 -3 -22 -10 -30 -15 -8 -4 -44 -22 -80 -39 -91 -42 -152 -72 -170 -81 -16 -10 -76 -36 -100 -45 -8 -3 -22 -10 -30 -15 -15 -9 -73 -35 -100 -45 -8 -3 -22 -10 -30 -15 -16 -9 -135 -65 -160 -75 -8 -3 -22 -10 -30 -15 -8 -5 -44 -23 -80 -41 l-65 -31 -219 3 c-164 2 -220 6 -224 16 -2 6 4 12 13 12 9 0 29 6 43 14 15 8 34 17 42 20 8 3 22 10 30 14 15 9 71 35 100 46 8 3 22 10 30 15 8 5 22 12 30 15 8 3 22 10 30 14 15 9 71 35 100 46 8 3 22 10 30 15 14 9 128 62 160 75 8 3 22 10 30 15 8 5 44 23 80 39 106 48 264 123 280 132 8 5 39 21 68 34 105 50 91 51 -480 47 -380 -2 -527 0 -532 8 -4 6 3 15 18 21 36 13 296 135 357 166 21 11 160 13 719 14 382 0 695 2 698 4 2 3 53 5 113 5 91 1 109 -2 109 -14z m-1076 -243 c2 -4 -19 -18 -47 -31 -29 -12 -79 -35 -112 -51 -33 -16 -67 -31 -75 -34 -8 -3 -22 -10 -30 -15 -46 -26 -80 -41 -94 -41 -9 0 -16 -4 -16 -9 0 -5 -10 -13 -22 -16 -13 -4 -50 -19 -83 -35 -33 -16 -67 -31 -75 -34 -8 -3 -22 -10 -30 -15 -24 -15 -87 -41 -99 -41 -6 0 -11 -4 -11 -10 0 -5 -5 -10 -11 -10 -6 0 -57 -22 -112 -49 -56 -27 -109 -51 -117 -55 -8 -3 -22 -10 -30 -14 -8 -5 -45 -23 -81 -41 l-66 -31 -509 2 c-333 2 -508 6 -506 13 1 6 12 13 25 16 12 3 76 32 142 64 66 31 161 76 210 100 50 24 125 60 168 80 42 21 80 42 83 46 3 5 16 9 30 9 13 0 24 4 24 9 0 5 10 13 23 16 26 8 98 41 262 123 l120 60 517 1 c284 1 519 -2 522 -7z m1113 -547 c2 -9 -31 -27 -87 -49 -8 -3 -23 -10 -32 -16 -10 -5 -26 -15 -35 -20 -10 -6 -25 -13 -33 -16 -29 -11 -85 -37 -100 -46 -8 -4 -22 -11 -30 -14 -50 -21 -101 -47 -106 -55 -3 -5 -16 -9 -28 -9 -13 0 -29 -7 -36 -15 -7 -8 -18 -15 -25 -15 -8 0 -26 -7 -42 -14 -15 -8 -35 -17 -43 -20 -8 -3 -22 -10 -30 -15 -16 -10 -136 -66 -160 -75 -8 -3 -22 -10 -30 -14 -15 -9 -71 -35 -100 -46 -8 -3 -22 -10 -30 -15 -16 -10 -136 -66 -160 -75 -8 -3 -22 -10 -30 -15 -8 -4 -46 -23 -85 -41 -38 -17 -77 -36 -85 -41 -8 -5 -22 -12 -30 -15 -8 -3 -28 -12 -43 -20 -16 -7 -34 -14 -42 -14 -7 0 -18 -7 -25 -15 -7 -8 -23 -15 -36 -15 -12 0 -26 -4 -29 -10 -10 -16 -98 -51 -140 -55 -22 -2 -130 -7 -239 -10 l-199 -5 23 25 c13 14 31 25 41 25 9 0 22 7 29 15 7 8 23 15 35 15 12 0 28 7 35 15 7 8 20 15 30 15 10 0 23 7 30 15 7 8 17 15 23 15 15 0 156 71 163 81 3 5 16 9 28 9 13 0 29 7 36 15 7 8 20 15 30 15 10 0 23 7 30 15 7 8 17 15 23 15 6 0 52 20 101 44 50 24 98 47 106 50 8 3 22 10 30 15 8 5 35 19 60 31 25 11 52 25 60 29 8 5 49 25 91 45 42 20 84 45 94 56 17 19 17 20 0 26 -9 4 -242 5 -517 1 -395 -4 -502 -8 -515 -18 -14 -12 -15 -11 -8 11 4 14 8 26 9 26 0 1 28 13 61 27 33 14 114 51 180 83 l120 58 320 3 c176 3 491 8 700 12 475 10 637 9 642 -4z m-1082 -235 c3 -6 -2 -13 -12 -16 -37 -13 -103 -46 -109 -55 -3 -5 -16 -9 -29 -9 -13 0 -26 -4 -30 -9 -3 -6 -27 -20 -53 -32 -26 -12 -54 -25 -62 -30 -8 -5 -22 -12 -30 -15 -25 -10 -144 -66 -160 -75 -8 -5 -22 -12 -30 -15 -22 -9 -93 -44 -110 -54 -33 -19 -147 -70 -158 -70 -7 0 -12 -4 -12 -9 0 -5 -10 -13 -22 -16 -13 -4 -50 -19 -83 -35 -33 -16 -67 -31 -75 -34 -8 -3 -22 -10 -30 -15 -68 -43 -104 -49 -270 -50 -91 -1 -192 -3 -224 -6 -33 -2 -202 -7 -377 -10 -310 -6 -366 -2 -301 24 15 6 34 15 42 20 8 5 22 12 30 15 8 3 22 10 30 15 8 5 31 16 50 24 102 45 130 60 136 68 3 5 13 9 22 9 9 0 44 13 77 29 33 16 67 32 75 35 8 3 22 10 30 15 8 5 44 23 80 39 36 17 94 44 130 60 36 17 72 33 80 36 8 3 22 10 30 15 8 5 44 23 80 39 36 17 103 48 150 71 l85 40 329 1 c182 0 332 3 335 5 9 10 380 5 386 -5z m1070 -570 c3 -6 -2 -13 -12 -16 -10 -3 -31 -12 -48 -19 -16 -8 -37 -16 -45 -19 -8 -3 -22 -10 -30 -15 -15 -9 -191 -93 -220 -105 -8 -3 -22 -10 -30 -15 -8 -5 -22 -12 -30 -15 -8 -3 -22 -10 -30 -15 -14 -9 -128 -62 -160 -75 -8 -3 -22 -10 -30 -15 -8 -5 -35 -19 -60 -31 -25 -11 -52 -25 -60 -30 -8 -5 -22 -11 -30 -14 -8 -3 -22 -10 -30 -15 -14 -9 -128 -62 -160 -75 -8 -3 -22 -10 -30 -15 -15 -9 -73 -35 -100 -45 -8 -3 -22 -10 -30 -15 -8 -5 -22 -12 -30 -15 -8 -3 -22 -10 -30 -15 -8 -5 -22 -12 -30 -15 -8 -3 -22 -10 -30 -14 -15 -9 -71 -35 -100 -46 -8 -3 -22 -10 -30 -15 -8 -5 -22 -12 -30 -15 -8 -3 -23 -10 -32 -16 -10 -5 -26 -15 -35 -20 -10 -6 -25 -13 -33 -16 -8 -3 -27 -12 -42 -20 -20 -11 -79 -14 -276 -14 -158 0 -253 4 -257 10 -3 6 2 13 12 16 10 3 32 11 48 19 17 7 37 16 45 19 8 3 22 10 30 15 8 5 22 12 30 15 8 3 22 10 30 15 14 8 103 50 152 71 13 5 30 14 38 19 15 8 72 34 100 45 8 3 22 10 30 15 8 5 22 12 30 15 8 3 22 10 30 15 8 5 35 19 60 31 25 11 52 25 60 30 18 10 139 66 160 74 8 3 22 10 30 15 8 5 35 19 60 31 25 11 52 25 60 29 22 13 82 39 103 45 10 3 17 11 15 17 -2 7 -165 10 -532 9 -413 0 -527 2 -524 12 2 6 15 15 29 18 13 4 58 23 99 42 41 20 100 46 130 59 30 13 78 36 105 50 l50 27 802 1 c529 1 804 -2 808 -9z m-1101 -245 c0 -5 -11 -12 -25 -16 -34 -7 -96 -37 -104 -49 -3 -5 -14 -10 -23 -10 -13 0 -288 -130 -342 -161 -8 -5 -22 -12 -30 -15 -8 -4 -55 -26 -105 -49 -49 -24 -97 -46 -105 -49 -8 -3 -22 -10 -30 -15 -8 -5 -22 -12 -30 -15 -8 -3 -22 -10 -30 -15 -46 -26 -80 -41 -94 -41 -9 0 -16 -4 -16 -10 0 -5 -12 -13 -27 -16 -16 -4 -33 -11 -40 -16 -7 -5 -29 -18 -50 -29 -35 -18 -65 -19 -561 -19 -414 0 -523 3 -520 13 3 6 16 14 29 17 13 3 49 17 79 32 30 14 62 29 70 32 8 3 22 10 30 15 8 5 22 12 30 15 8 3 22 10 30 15 8 5 35 17 60 27 25 10 52 24 61 31 8 7 25 13 36 13 11 0 26 7 33 15 7 8 18 15 25 15 8 0 26 7 42 14 15 8 35 17 43 20 8 3 22 10 30 15 15 10 168 83 252 121 27 12 50 26 54 31 3 5 13 9 22 9 10 0 52 18 95 39 42 22 94 42 114 44 86 9 998 2 997 -8z m1079 -553 c9 -1 17 -7 17 -12 0 -6 -8 -13 -17 -16 -10 -3 -31 -11 -48 -19 -16 -7 -37 -16 -45 -19 -8 -3 -22 -10 -30 -15 -8 -4 -46 -23 -85 -41 -38 -17 -77 -36 -85 -41 -8 -5 -22 -12 -30 -15 -8 -3 -28 -11 -45 -19 -16 -7 -37 -16 -45 -19 -8 -3 -22 -10 -30 -15 -40 -24 -142 -71 -154 -71 -7 0 -19 -7 -26 -15 -7 -8 -20 -15 -30 -15 -10 0 -23 -7 -30 -15 -7 -8 -20 -15 -30 -15 -10 0 -23 -7 -30 -15 -7 -8 -23 -15 -35 -15 -12 0 -28 -7 -35 -15 -7 -8 -20 -15 -30 -15 -10 0 -23 -7 -30 -15 -7 -8 -20 -15 -30 -15 -10 0 -23 -7 -30 -15 -7 -8 -23 -15 -35 -15 -12 0 -28 -7 -35 -15 -7 -8 -20 -15 -30 -15 -10 0 -23 -7 -30 -15 -7 -8 -20 -15 -30 -15 -10 0 -23 -7 -30 -15 -7 -8 -19 -15 -27 -15 -8 0 -27 -6 -41 -14 -15 -8 -34 -17 -42 -20 -8 -3 -22 -10 -30 -15 -8 -5 -22 -12 -30 -15 -8 -3 -22 -10 -30 -15 -22 -13 -142 -68 -162 -75 -10 -3 -18 -10 -18 -16 0 -5 -7 -10 -15 -10 -9 0 -30 -7 -47 -16 -36 -19 -55 -20 -348 -29 l-215 -7 30 26 c17 14 37 25 46 26 9 0 22 7 29 15 7 8 19 15 27 15 8 0 27 6 41 14 15 8 34 17 42 20 8 3 22 10 30 15 15 9 191 93 220 105 8 3 22 10 30 15 8 5 22 12 30 15 8 3 22 10 30 15 17 10 197 96 220 105 8 3 22 10 30 15 8 5 36 19 62 31 27 12 50 26 54 31 3 5 16 9 28 9 13 0 29 7 36 15 7 8 20 15 30 15 10 0 23 7 30 15 7 8 21 15 31 15 10 0 21 5 24 10 3 6 17 10 29 10 13 0 28 6 35 13 28 35 -1 37 -511 30 -495 -6 -545 -3 -470 26 15 6 34 15 42 21 8 5 74 37 145 70 72 33 139 66 150 73 15 9 196 13 745 17 737 5 831 5 863 2z m-1109 -238 c23 -9 20 -22 -6 -29 -36 -11 -107 -46 -114 -56 -3 -5 -12 -9 -20 -9 -8 0 -70 -27 -137 -60 -68 -33 -127 -60 -131 -60 -4 0 -14 -7 -22 -15 -9 -8 -24 -15 -33 -15 -10 0 -24 -7 -31 -15 -7 -8 -18 -15 -24 -15 -7 0 -64 -26 -128 -59 -64 -32 -125 -61 -135 -64 -10 -4 -25 -11 -33 -16 -19 -12 -86 -41 -95 -41 -3 0 -13 -7 -21 -15 -9 -8 -24 -15 -33 -15 -10 0 -24 -7 -31 -15 -7 -8 -17 -15 -23 -15 -6 0 -30 -9 -53 -21 -37 -17 -66 -21 -216 -24 -323 -6 -818 -8 -824 -2 -3 3 5 8 18 12 19 6 118 53 178 84 64 34 80 41 94 41 9 0 16 4 16 9 0 5 10 13 23 16 21 6 119 51 182 83 52 27 58 30 135 66 161 74 291 139 296 147 3 5 14 9 25 9 11 0 27 7 35 15 9 8 24 15 34 15 10 0 21 4 25 9 3 6 20 18 38 28 29 16 73 18 507 23 261 3 478 6 482 8 3 1 13 -1 22 -4z m1110 -584 c6 -6 2 -12 -10 -15 -24 -8 -84 -34 -104 -46 -8 -5 -22 -12 -30 -15 -8 -3 -42 -19 -75 -34 -33 -15 -67 -31 -75 -34 -8 -3 -22 -10 -30 -14 -43 -24 -83 -42 -95 -42 -7 0 -18 -7 -25 -15 -7 -8 -23 -15 -35 -15 -12 0 -28 -7 -35 -15 -7 -8 -20 -15 -30 -15 -10 0 -23 -7 -30 -15 -7 -8 -19 -15 -27 -15 -8 0 -27 -6 -41 -14 -15 -8 -34 -17 -42 -20 -8 -3 -22 -10 -30 -15 -15 -9 -73 -35 -100 -45 -8 -3 -22 -10 -30 -14 -15 -9 -71 -35 -100 -46 -8 -3 -22 -10 -30 -15 -14 -9 -128 -62 -160 -75 -8 -3 -22 -10 -30 -14 -8 -5 -31 -16 -50 -25 -94 -41 -130 -60 -136 -68 -3 -5 -16 -9 -28 -9 -13 0 -29 -7 -36 -15 -7 -8 -20 -15 -30 -15 -10 0 -23 -7 -30 -15 -7 -8 -18 -15 -25 -15 -7 0 -40 -14 -74 -30 l-61 -30 -222 2 c-142 2 -222 7 -221 13 1 6 10 11 20 13 10 2 32 9 48 17 17 8 37 16 45 19 8 3 22 10 30 15 8 5 22 12 30 15 8 3 22 10 30 15 8 5 35 18 60 29 25 11 83 38 130 60 47 22 92 42 100 46 8 3 22 10 30 14 15 9 71 35 100 46 8 3 22 10 30 15 15 9 191 93 220 105 8 3 22 10 30 15 8 4 47 23 85 41 119 55 135 64 135 76 0 14 -28 27 -41 19 -12 -8 -999 -6 -1012 2 -5 3 15 17 44 31 30 14 104 49 164 77 180 86 188 89 240 95 90 9 1549 0 1559 -10z m-1069 -240 c3 -6 -2 -13 -12 -16 -10 -3 -33 -12 -50 -20 -18 -8 -48 -20 -65 -28 -49 -22 -121 -56 -138 -65 -8 -5 -31 -16 -50 -24 -19 -8 -63 -29 -98 -46 -34 -17 -69 -31 -77 -31 -8 0 -15 -4 -15 -9 0 -5 -10 -13 -22 -16 -13 -4 -50 -19 -83 -35 -33 -16 -67 -31 -75 -34 -8 -3 -22 -10 -30 -15 -8 -5 -36 -19 -62 -31 -27 -12 -50 -26 -54 -31 -3 -5 -16 -9 -28 -9 -13 0 -29 -7 -36 -15 -7 -8 -18 -15 -25 -15 -12 0 -44 -14 -95 -41 -96 -52 -64 -49 -611 -49 -330 0 -510 4 -514 10 -3 6 2 13 12 16 10 3 32 12 48 19 79 35 104 45 114 45 6 0 11 5 11 10 0 6 5 10 12 10 6 0 57 22 112 49 56 27 108 52 116 55 8 3 22 10 30 15 46 26 80 41 94 41 9 0 16 4 16 9 0 5 10 13 23 16 20 6 82 35 117 54 8 5 31 16 50 24 19 8 63 29 98 46 34 17 68 31 76 31 7 0 19 7 26 15 7 8 20 15 30 15 10 0 23 7 30 15 7 8 20 15 30 15 10 0 23 7 30 15 11 13 83 15 536 15 340 0 525 -4 529 -10z"/> <path d="M4690 5507 c0 -7 -40 -31 -90 -54 -49 -23 -90 -46 -90 -50 1 -32 18 -35 236 -36 212 -1 276 6 225 25 -13 4 -99 7 -192 6 -93 -2 -169 -1 -169 2 0 8 47 50 56 50 5 0 30 10 57 22 59 28 62 48 7 48 -26 0 -40 -5 -40 -13z"/> <path d="M6360 5505 c0 -9 -12 -20 -27 -26 -15 -6 -50 -22 -78 -37 l-50 -27 -307 -3 c-170 -2 -308 -7 -308 -11 0 -16 115 -21 313 -16 108 4 197 2 197 -2 0 -5 -24 -19 -52 -32 -29 -12 -79 -36 -111 -52 -32 -16 -63 -29 -68 -29 -6 0 -17 -7 -25 -15 -9 -8 -24 -15 -34 -15 -10 0 -22 -4 -25 -10 -3 -5 -14 -10 -24 -10 -10 0 -28 -9 -41 -20 -13 -11 -29 -20 -36 -20 -7 0 -34 -11 -61 -24 -26 -12 -70 -33 -98 -45 -54 -24 -64 -29 -110 -54 -56 -30 -183 -87 -194 -87 -6 0 -11 -4 -11 -10 0 -5 -7 -10 -15 -10 -8 0 -41 -13 -72 -29 -100 -51 -211 -101 -222 -101 -6 0 -11 -4 -11 -9 0 -5 -10 -13 -22 -16 -13 -4 -50 -20 -84 -36 -33 -16 -66 -29 -72 -29 -7 0 -12 -4 -12 -10 0 -5 -5 -10 -11 -10 -18 0 -102 -41 -146 -72 -44 -30 -56 -58 -25 -58 290 -3 1130 2 1152 7 88 17 -40 23 -527 23 -293 0 -533 4 -533 8 0 11 56 52 71 52 6 0 23 6 37 14 15 8 59 29 97 46 39 18 77 37 85 41 8 5 22 12 30 15 8 3 44 20 80 36 36 17 94 44 130 61 36 16 72 34 80 38 8 5 22 12 30 15 8 3 58 26 110 51 52 25 124 59 160 75 36 17 72 35 80 39 8 5 22 12 30 15 8 3 42 19 75 34 33 15 67 31 75 34 8 3 22 10 30 14 8 5 33 17 55 27 22 9 47 21 55 26 8 5 22 12 30 15 18 8 89 42 110 53 8 5 44 22 80 40 l65 31 242 0 c152 0 244 -4 248 -10 3 -6 -2 -13 -12 -16 -24 -8 -144 -63 -163 -75 -8 -5 -22 -12 -30 -15 -8 -3 -19 -8 -25 -10 -5 -2 -17 -8 -25 -13 -8 -5 -46 -24 -85 -41 -38 -17 -77 -36 -85 -41 -8 -5 -22 -12 -30 -15 -8 -3 -22 -10 -30 -15 -8 -5 -22 -12 -30 -15 -29 -11 -85 -37 -100 -46 -8 -4 -22 -11 -30 -14 -8 -3 -22 -10 -30 -15 -8 -5 -22 -12 -30 -15 -32 -13 -146 -66 -160 -75 -8 -5 -22 -12 -30 -15 -8 -4 -53 -25 -100 -47 -47 -22 -96 -43 -109 -46 -13 -4 -31 -18 -40 -31 -15 -23 -15 -23 9 -15 24 8 1042 24 1068 17 19 -6 14 -20 -10 -28 -13 -4 -72 -30 -133 -59 -289 -138 -226 -123 -535 -124 -117 -1 -211 -5 -220 -11 -17 -11 35 -14 249 -15 96 0 135 -3 138 -12 3 -7 -8 -15 -24 -19 -15 -4 -37 -13 -48 -20 -11 -8 -27 -14 -37 -14 -10 0 -18 -4 -18 -9 0 -5 -13 -12 -30 -16 -16 -4 -30 -11 -30 -15 0 -5 -16 -12 -35 -16 -19 -3 -35 -10 -35 -15 0 -5 -6 -9 -12 -9 -11 0 -119 -49 -190 -86 -14 -8 -33 -14 -42 -14 -9 0 -16 -4 -16 -9 0 -5 -13 -12 -30 -16 -16 -4 -30 -10 -30 -15 0 -5 -10 -11 -22 -15 -13 -3 -45 -17 -73 -30 -61 -29 -199 -92 -240 -110 -16 -7 -54 -25 -83 -39 -30 -14 -59 -26 -66 -26 -7 0 -23 -9 -36 -20 -13 -11 -29 -20 -36 -20 -7 0 -52 -20 -101 -44 -48 -24 -119 -59 -158 -76 -191 -87 -204 -94 -205 -117 0 -30 10 -34 56 -20 40 12 74 39 74 57 0 6 13 13 30 16 16 4 35 13 41 20 6 8 18 14 25 14 12 0 114 47 154 71 8 5 22 12 30 15 27 10 85 36 100 45 8 5 22 12 30 15 32 13 146 66 160 75 8 5 22 12 30 15 32 12 60 24 305 140 55 25 129 60 165 76 150 70 196 91 210 99 8 5 22 12 30 15 25 10 130 59 220 102 l85 40 190 2 c105 1 196 1 203 1 21 -2 13 -19 -13 -25 -14 -4 -25 -11 -25 -16 0 -6 -7 -10 -16 -10 -9 0 -28 -6 -42 -14 -15 -8 -48 -24 -74 -36 -27 -12 -50 -26 -54 -31 -3 -5 -16 -9 -28 -9 -13 0 -29 -7 -36 -15 -7 -8 -18 -15 -25 -15 -12 0 -52 -18 -95 -42 -8 -4 -22 -11 -30 -14 -8 -3 -42 -19 -75 -35 -33 -16 -65 -29 -71 -29 -6 0 -17 -7 -24 -15 -7 -8 -23 -15 -35 -15 -12 0 -28 -7 -35 -15 -7 -8 -20 -15 -30 -15 -10 0 -23 -7 -30 -15 -7 -8 -19 -15 -27 -15 -8 0 -27 -6 -41 -13 -15 -8 -45 -22 -67 -32 -22 -9 -47 -21 -55 -26 -8 -5 -22 -12 -30 -15 -97 -40 -144 -70 -134 -86 3 -5 231 -8 531 -8 289 1 527 -1 530 -4 8 -8 -7 -26 -22 -26 -7 0 -57 -22 -111 -49 -55 -27 -139 -68 -188 -91 l-89 -41 -476 -5 c-262 -3 -609 -6 -771 -8 -277 -3 -330 -7 -330 -26 0 -13 74 -18 95 -6 14 8 225 12 698 14 583 3 677 1 677 -11 0 -8 -10 -17 -22 -20 -38 -8 -92 -31 -106 -44 -7 -7 -19 -13 -25 -13 -6 0 -52 -20 -102 -44 -49 -25 -121 -59 -160 -76 -38 -18 -96 -45 -128 -61 -31 -16 -64 -29 -72 -29 -8 0 -15 -4 -15 -10 0 -5 -12 -13 -26 -16 -15 -4 -50 -20 -80 -35 -29 -16 -60 -29 -69 -29 -8 0 -15 -4 -15 -9 0 -5 -10 -13 -22 -16 -13 -4 -63 -26 -113 -50 -49 -24 -111 -53 -137 -65 -27 -12 -50 -26 -54 -31 -3 -5 -16 -9 -30 -9 -13 0 -24 -3 -24 -8 0 -4 -24 -18 -52 -31 -76 -34 -240 -112 -258 -122 -8 -5 -30 -15 -47 -23 -24 -11 -33 -22 -33 -38 l0 -23 792 0 c624 0 792 -3 795 -12 3 -8 -4 -13 -17 -13 -19 0 -50 -13 -100 -41 -8 -5 -22 -12 -30 -15 -8 -3 -27 -12 -42 -20 -14 -8 -33 -14 -42 -14 -9 0 -16 -4 -16 -9 0 -5 -10 -13 -22 -16 -13 -4 -51 -20 -86 -36 -34 -16 -66 -29 -71 -29 -5 0 -14 -7 -21 -15 -7 -8 -20 -15 -29 -15 -13 0 -173 -73 -221 -101 -8 -5 -22 -12 -30 -15 -8 -3 -42 -19 -75 -34 -33 -16 -80 -38 -105 -50 -45 -21 -64 -31 -97 -50 -10 -6 -25 -13 -33 -16 -8 -3 -27 -12 -42 -20 -14 -8 -33 -14 -41 -14 -8 0 -17 -7 -21 -15 -3 -8 -13 -15 -23 -15 -15 0 -116 -44 -163 -71 -8 -5 -22 -12 -30 -15 -8 -3 -41 -19 -73 -35 -31 -16 -63 -29 -71 -29 -7 0 -19 -7 -26 -15 -7 -8 -21 -15 -31 -15 -20 0 -44 -35 -34 -50 5 -9 195 -9 968 0 15 0 27 3 27 8 0 4 -198 8 -440 9 -243 1 -445 5 -451 8 -10 7 54 55 71 55 9 0 117 51 150 71 8 5 22 12 30 15 29 11 85 37 100 46 8 4 22 11 30 14 8 4 71 33 140 66 69 33 141 67 160 76 19 8 42 19 50 23 8 4 35 18 60 29 25 12 52 26 60 31 8 5 22 12 30 15 32 13 146 66 160 75 8 5 22 12 30 15 8 3 28 12 43 20 16 7 34 14 42 14 7 0 18 7 25 15 7 8 20 15 30 15 10 0 23 7 30 15 7 8 19 15 28 15 19 0 100 38 108 51 3 5 16 9 29 9 13 0 26 4 29 9 4 5 27 19 54 31 26 12 58 28 72 35 18 9 91 15 248 18 215 6 222 5 222 -14 0 -11 -7 -19 -16 -19 -9 0 -28 -6 -42 -14 -15 -8 -34 -17 -42 -20 -8 -3 -22 -10 -30 -15 -8 -5 -46 -24 -85 -41 -38 -18 -77 -37 -85 -41 -8 -5 -22 -12 -30 -15 -32 -13 -146 -66 -160 -75 -8 -5 -22 -12 -30 -15 -8 -3 -22 -10 -30 -15 -8 -5 -22 -12 -30 -15 -27 -10 -85 -36 -100 -45 -8 -5 -22 -12 -30 -15 -8 -3 -22 -10 -30 -15 -8 -5 -22 -12 -30 -15 -27 -10 -85 -36 -100 -45 -8 -5 -22 -12 -30 -15 -8 -3 -22 -10 -30 -15 -8 -5 -22 -12 -30 -15 -8 -3 -28 -11 -45 -19 -16 -7 -38 -16 -47 -19 -10 -3 -18 -10 -18 -16 0 -7 169 -10 545 -10 300 1 550 -2 556 -6 7 -4 -12 -18 -42 -32 -30 -14 -124 -59 -209 -101 l-155 -76 -155 -3 c-181 -4 -232 -22 -62 -22 108 0 145 -11 85 -26 -16 -4 -30 -10 -33 -14 -6 -9 -96 -50 -109 -50 -6 0 -11 -4 -11 -9 0 -5 -10 -12 -22 -16 -24 -6 -71 -28 -238 -109 -52 -25 -100 -46 -106 -46 -6 0 -17 -7 -24 -15 -7 -8 -20 -15 -30 -15 -10 0 -23 -7 -30 -15 -7 -8 -20 -15 -30 -15 -10 0 -23 -7 -30 -15 -7 -8 -20 -15 -30 -15 -10 0 -23 -7 -30 -15 -7 -8 -20 -15 -30 -15 -10 0 -23 -7 -30 -15 -7 -8 -23 -15 -36 -15 -13 0 -24 -4 -24 -10 0 -5 -12 -13 -27 -16 -16 -4 -37 -13 -48 -20 -11 -8 -27 -14 -37 -14 -10 0 -18 -4 -18 -10 0 -5 -5 -10 -11 -10 -11 0 -83 -33 -254 -116 -50 -24 -96 -44 -103 -44 -7 0 -12 -4 -12 -9 0 -5 -10 -13 -22 -16 -21 -6 -83 -35 -118 -54 -8 -5 -33 -17 -55 -27 -50 -24 -75 -43 -75 -60 0 -12 136 -14 775 -16 508 -2 775 -6 776 -13 0 -5 -8 -11 -18 -13 -18 -3 -74 -27 -103 -44 -8 -4 -22 -11 -30 -14 -8 -3 -22 -10 -30 -15 -8 -5 -22 -12 -30 -15 -29 -11 -85 -37 -100 -46 -8 -4 -22 -11 -30 -14 -21 -9 -135 -62 -203 -96 -31 -15 -64 -28 -72 -28 -8 0 -15 -4 -15 -9 0 -5 -10 -13 -22 -16 -23 -6 -139 -59 -168 -76 -8 -5 -22 -12 -30 -15 -50 -21 -101 -47 -106 -55 -3 -5 -16 -9 -30 -9 -13 0 -24 -4 -24 -9 0 -5 -10 -13 -22 -16 -21 -6 -77 -32 -118 -54 -59 -32 -80 -41 -94 -41 -9 0 -16 -4 -16 -10 0 -5 -5 -10 -11 -10 -7 0 -33 -10 -58 -21 -25 -12 -62 -29 -81 -38 -19 -9 -41 -22 -48 -29 -7 -6 -21 -12 -30 -12 -9 0 -26 -7 -36 -15 -11 -8 -28 -15 -39 -15 -14 0 -18 -6 -15 -28 2 -18 8 -26 18 -23 8 2 121 5 250 8 294 6 159 5 1055 7 184 1 292 -3 294 -9 3 -5 -6 -12 -20 -15 -13 -3 -51 -18 -84 -33 -33 -16 -76 -35 -95 -44 -19 -9 -42 -20 -50 -25 -8 -4 -22 -11 -30 -14 -43 -17 -194 -85 -232 -105 -20 -10 -44 -19 -52 -19 -9 0 -16 -4 -16 -10 0 -5 -5 -10 -11 -10 -12 0 -72 -26 -195 -86 -50 -24 -96 -44 -103 -44 -6 0 -11 -4 -11 -10 0 -5 -6 -10 -12 -10 -7 0 -46 -16 -88 -36 -101 -49 -191 -91 -215 -100 -16 -7 -12 -9 19 -12 22 -2 49 1 60 6 63 30 153 71 166 76 8 3 23 10 33 16 9 5 25 15 35 20 9 6 24 13 32 16 26 9 90 38 273 123 37 17 97 45 135 62 37 17 95 45 129 61 148 68 192 89 258 118 39 17 77 35 85 40 81 51 111 56 403 64 l168 5 -23 -24 c-13 -14 -29 -25 -36 -25 -8 0 -26 -6 -40 -14 -15 -8 -47 -24 -72 -36 -25 -11 -52 -25 -60 -29 -16 -9 -75 -35 -100 -45 -8 -3 -23 -10 -32 -16 -10 -5 -26 -15 -35 -20 -10 -6 -25 -13 -33 -16 -8 -3 -44 -19 -80 -36 -36 -17 -81 -37 -100 -46 -19 -8 -42 -19 -50 -24 -8 -4 -22 -11 -30 -14 -8 -3 -22 -10 -30 -15 -8 -5 -22 -12 -30 -15 -8 -3 -31 -12 -50 -21 -19 -9 -51 -22 -70 -31 -19 -8 -42 -19 -50 -24 -8 -4 -22 -11 -30 -14 -8 -3 -22 -10 -30 -15 -8 -5 -22 -12 -30 -15 -8 -3 -27 -12 -42 -20 -14 -8 -33 -14 -42 -14 -9 0 -16 -7 -16 -15 0 -13 65 -15 529 -15 304 0 532 -4 535 -9 3 -5 -9 -15 -27 -23 -28 -11 6 -13 273 -16 293 -2 306 -2 350 19 25 12 57 25 71 29 14 4 374 9 800 11 l774 4 3 -22 c3 -19 -1 -23 -22 -23 -14 0 -28 -5 -31 -10 -4 -6 10 -10 34 -10 22 0 43 5 46 10 3 6 17 10 30 10 49 0 107 53 89 81 -2 5 -252 8 -554 9 -474 0 -554 -2 -580 -15 -23 -12 -34 -13 -54 -4 -18 9 -77 9 -218 2 -109 -6 -197 -7 -202 -2 -6 6 -4 9 5 9 9 0 24 9 34 20 10 11 25 20 33 20 9 0 45 14 81 31 73 35 128 60 246 114 44 20 107 50 141 66 33 16 66 29 72 29 7 0 12 4 12 10 0 5 12 13 27 16 15 4 38 13 52 20 14 8 32 14 39 14 6 0 12 4 12 9 0 5 10 13 23 16 47 14 295 134 303 146 3 5 13 9 23 9 10 0 24 7 31 15 7 8 20 15 29 15 14 0 116 45 161 71 8 5 22 12 30 15 8 3 24 10 35 15 11 5 31 13 45 19 14 5 32 14 40 19 8 5 36 19 63 31 48 22 63 52 31 64 -24 9 -1465 6 -1509 -4 -22 -5 -51 -11 -65 -15 -22 -6 -23 -5 -9 7 8 7 18 21 22 31 3 9 13 17 20 17 20 0 105 38 112 50 3 6 14 10 24 10 10 0 43 14 74 30 31 17 63 30 71 30 7 0 19 7 26 15 7 8 20 15 30 15 9 0 42 14 73 30 31 16 63 30 72 30 8 0 15 4 15 9 0 5 10 13 23 16 12 4 49 19 82 35 130 61 218 102 380 175 33 15 77 35 98 46 21 10 44 19 52 19 8 0 15 4 15 9 0 5 10 13 23 16 12 4 49 19 82 35 33 15 92 42 130 60 39 17 90 41 114 53 45 22 71 50 59 63 -4 3 -367 6 -808 5 -703 -1 -800 1 -800 14 0 8 9 15 19 15 11 0 32 6 48 14 15 8 46 22 68 32 22 9 47 21 55 26 8 4 22 11 30 14 50 21 101 47 106 55 3 5 16 9 28 9 13 0 29 7 36 15 7 8 18 15 24 15 10 0 52 19 199 92 31 15 64 28 72 28 8 0 15 4 15 9 0 5 10 13 23 16 25 8 144 62 167 76 8 5 22 12 30 15 8 3 29 12 47 20 17 8 36 14 42 14 6 0 11 4 11 9 0 5 10 13 23 16 25 8 144 62 167 76 8 5 22 12 30 15 29 11 85 37 100 46 8 4 22 11 30 14 8 3 27 12 42 20 14 8 31 14 38 14 7 0 32 14 57 30 24 17 50 30 57 30 22 0 61 49 49 61 -13 13 -1443 18 -1542 5 -52 -7 -63 -6 -59 5 3 8 13 16 23 18 10 2 25 9 33 17 7 8 19 14 27 14 7 0 35 11 62 24 26 13 80 39 118 56 39 18 115 54 170 81 55 27 106 49 113 49 6 0 12 5 12 10 0 6 6 10 13 10 6 1 30 9 52 20 22 11 46 19 53 20 6 0 12 5 12 10 0 6 7 10 15 10 17 0 99 41 103 52 2 4 19 10 38 14 19 3 34 10 34 15 0 5 5 9 12 9 19 0 298 142 298 151 0 5 10 9 23 9 12 0 49 14 82 30 33 16 66 30 73 30 6 0 12 5 12 10 0 6 5 10 11 10 6 0 43 16 83 35 40 19 80 35 89 35 19 0 33 38 19 52 -6 6 -305 8 -796 6 -634 -2 -786 -1 -786 10 0 7 8 15 18 18 9 3 31 12 47 19 103 46 125 58 131 66 3 5 12 9 20 9 8 0 42 14 76 30 33 17 66 30 74 30 8 0 14 4 14 9 0 5 10 13 23 16 12 4 51 20 87 37 36 17 81 38 100 47 19 9 37 19 40 22 3 3 18 9 34 13 15 4 35 14 43 21 8 8 25 15 38 15 13 0 25 4 27 8 4 11 86 52 103 52 8 0 15 4 15 10 0 5 12 13 27 16 15 4 34 13 41 21 7 7 19 13 26 13 8 0 19 7 26 15 7 8 20 15 29 15 9 0 43 14 76 30 33 16 66 30 73 30 6 0 12 4 12 10 0 5 12 13 26 16 15 4 50 20 80 35 29 16 60 29 68 29 7 0 19 7 26 15 7 8 21 15 32 15 10 0 21 7 24 15 4 8 16 15 29 15 12 0 28 6 35 14 6 8 28 16 47 18 39 3 48 14 34 37 -8 13 -87 15 -538 14 -679 -1 -956 -6 -1015 -17 -34 -6 -48 -5 -48 3 0 6 7 11 15 11 8 0 23 9 32 20 10 11 26 20 36 20 10 0 31 6 45 14 25 13 137 65 172 80 8 3 22 10 30 15 8 5 33 17 55 26 40 17 99 43 210 95 33 15 90 42 128 59 159 73 207 96 292 136 142 68 287 135 320 149 17 7 73 34 125 59 52 25 105 49 118 52 24 7 46 40 37 55 -7 11 -1523 7 -1610 -4 -47 -6 -49 -6 -30 9 20 16 66 39 180 90 99 44 147 67 196 90 26 13 61 26 78 30 17 4 31 11 31 16 0 5 12 12 28 15 15 4 47 18 71 31 24 12 52 23 62 23 10 0 24 7 32 15 8 7 26 17 41 21 14 3 26 10 26 15 0 5 8 9 18 9 11 0 29 9 42 20 13 11 34 20 47 20 12 0 23 4 23 9 0 5 14 12 30 16 17 4 30 11 30 16 0 5 5 9 11 9 7 0 45 16 85 35 40 19 77 35 83 35 6 0 11 4 11 10 0 5 12 13 26 16 15 4 50 20 80 35 29 16 60 29 68 29 12 0 26 20 26 36 0 2 -18 4 -40 4 -29 0 -40 -4 -40 -15 0 -9 -8 -18 -17 -21 -23 -7 -83 -34 -103 -46 -8 -4 -22 -11 -30 -14 -29 -11 -85 -37 -100 -46 -8 -4 -22 -11 -30 -14 -8 -3 -42 -19 -75 -35 -33 -16 -65 -29 -71 -29 -6 0 -17 -7 -24 -15 -7 -8 -23 -15 -35 -15 -12 0 -28 -7 -35 -15 -7 -8 -18 -15 -25 -15 -12 0 -52 -18 -95 -42 -8 -4 -22 -11 -30 -14 -29 -11 -85 -37 -100 -46 -8 -4 -22 -11 -30 -14 -36 -13 -210 -93 -230 -105 -8 -5 -22 -12 -30 -15 -14 -5 -40 -16 -112 -48 -18 -8 -73 -34 -121 -56 l-88 -42 -201 -1 c-148 -1 -203 2 -206 11 -2 7 5 12 16 12 11 0 25 7 32 15 7 8 18 15 25 15 12 0 52 18 95 42 8 4 22 11 30 14 8 3 22 10 30 15 8 5 22 12 30 15 32 13 146 66 160 75 8 5 22 12 30 15 8 3 28 12 43 20 16 7 34 14 42 14 7 0 18 7 25 15 7 8 20 15 30 15 10 0 23 7 30 15 7 8 23 15 35 15 12 0 28 7 35 15 7 8 18 15 25 15 12 0 52 18 95 42 8 4 22 11 30 14 27 10 85 36 100 45 8 5 22 12 30 15 90 38 150 70 147 78 -4 11 -262 15 -850 16 -237 0 -253 5 -157 45 30 13 56 30 58 39 3 14 -30 16 -322 16 -285 0 -326 -2 -326 -15z m1475 -125 c3 -6 -2 -13 -12 -16 -22 -7 -78 -32 -115 -51 -14 -7 -33 -13 -42 -13 -9 0 -16 -4 -16 -9 0 -5 -10 -13 -22 -16 -26 -8 -145 -62 -168 -76 -8 -5 -22 -12 -30 -15 -8 -3 -28 -12 -45 -19 -16 -8 -37 -16 -45 -19 -8 -3 -22 -10 -30 -15 -8 -5 -31 -16 -50 -24 -19 -8 -63 -29 -98 -46 -34 -17 -69 -31 -77 -31 -8 0 -15 -4 -15 -10 0 -5 -5 -10 -12 -10 -10 0 -142 -60 -178 -81 -8 -5 -25 -13 -37 -19 -13 -5 -42 -19 -65 -30 -28 -13 -61 -20 -93 -20 -27 1 -254 -1 -503 -3 -248 -3 -454 -1 -457 4 -3 4 19 20 49 34 31 15 58 30 61 36 4 5 12 9 20 9 7 0 43 14 78 30 36 17 70 30 76 30 6 0 11 4 11 10 0 5 11 12 25 16 14 3 64 26 111 50 46 24 91 44 99 44 8 0 15 5 15 10 0 6 5 10 11 10 7 0 30 9 53 19 23 11 48 22 56 25 8 3 22 10 30 15 34 21 367 180 385 184 45 10 1024 7 1030 -3z m1059 -538 c5 -9 -46 -52 -61 -52 -8 0 -128 -55 -153 -71 -8 -5 -22 -12 -30 -15 -8 -3 -42 -19 -75 -35 -33 -16 -65 -29 -71 -29 -6 0 -17 -7 -24 -15 -7 -8 -23 -15 -35 -15 -12 0 -28 -7 -35 -15 -7 -8 -20 -15 -30 -15 -10 0 -23 -7 -30 -15 -7 -8 -18 -15 -25 -15 -8 0 -26 -6 -42 -14 -37 -19 -154 -73 -173 -80 -8 -3 -22 -10 -30 -15 -14 -9 -128 -62 -160 -75 -8 -3 -22 -10 -30 -15 -15 -9 -73 -35 -100 -45 -8 -3 -22 -10 -30 -15 -8 -5 -46 -24 -85 -41 -38 -17 -77 -36 -85 -41 -8 -5 -22 -12 -30 -15 -8 -3 -28 -11 -45 -19 -16 -7 -37 -16 -45 -19 -8 -3 -22 -10 -30 -15 -8 -5 -43 -23 -78 -40 l-62 -31 -230 0 c-223 0 -272 7 -218 30 13 5 30 14 38 19 15 8 72 34 100 45 8 3 22 10 30 15 8 5 22 12 30 15 8 3 22 10 30 15 16 10 136 66 160 75 8 3 22 10 30 15 8 5 22 12 30 15 8 3 22 10 30 15 8 5 22 12 30 15 8 3 22 10 30 14 8 5 31 16 50 25 19 9 64 29 99 46 34 17 69 31 76 31 7 0 18 7 25 15 7 8 20 15 30 15 10 0 23 7 30 15 7 8 20 15 30 15 10 0 23 7 30 15 7 8 19 15 28 15 24 0 151 64 152 76 0 8 -35 10 -112 7 -62 -1 -294 -4 -515 -6 -222 -1 -403 -5 -403 -8 0 -15 66 -17 468 -14 250 2 422 -1 422 -6 0 -5 -10 -14 -22 -19 -13 -6 -30 -14 -38 -19 -15 -9 -74 -35 -100 -45 -8 -3 -22 -10 -30 -15 -15 -9 -73 -35 -100 -45 -8 -3 -22 -10 -30 -15 -42 -25 -142 -71 -155 -71 -8 0 -15 -4 -15 -9 0 -5 -10 -13 -22 -16 -22 -7 -258 -118 -288 -136 -8 -5 -22 -12 -30 -15 -23 -10 -93 -44 -110 -54 -8 -5 -42 -21 -75 -36 l-60 -27 -511 -3 c-281 -1 -516 1 -523 6 -9 5 -4 11 16 19 15 6 35 15 43 19 44 26 80 42 93 42 8 0 20 7 27 15 7 8 23 15 36 15 13 0 24 4 24 9 0 5 10 13 23 16 22 6 98 41 210 97 31 15 64 28 72 28 8 0 15 4 15 10 0 5 12 13 28 16 15 4 36 13 47 20 11 8 27 14 37 14 10 0 18 4 18 9 0 5 13 12 29 16 16 3 35 13 42 21 6 8 17 14 24 14 7 0 37 14 68 30 31 17 63 30 71 30 7 0 19 7 26 15 7 8 19 15 26 15 8 0 32 11 54 25 23 15 54 25 76 25 28 0 42 7 67 35 17 19 34 35 39 35 9 0 98 41 238 109 112 54 -20 47 1020 56 382 3 696 8 699 10 7 8 29 6 35 -3z m-26 -800 c11 -10 -2 -32 -19 -32 -11 0 -33 -6 -47 -14 -15 -8 -34 -17 -42 -20 -8 -3 -22 -10 -30 -14 -15 -9 -71 -35 -100 -46 -8 -3 -22 -10 -30 -15 -16 -9 -135 -65 -160 -75 -8 -3 -22 -10 -30 -14 -15 -9 -71 -35 -100 -46 -8 -3 -22 -10 -30 -15 -8 -5 -22 -12 -30 -15 -8 -3 -22 -10 -30 -14 -15 -9 -71 -35 -100 -46 -8 -3 -22 -10 -30 -15 -16 -9 -135 -65 -160 -75 -8 -3 -22 -10 -30 -15 -8 -4 -44 -22 -80 -38 -36 -17 -108 -51 -160 -76 -52 -24 -102 -47 -110 -51 -8 -3 -22 -10 -30 -14 -15 -9 -71 -35 -100 -46 -8 -3 -22 -10 -30 -15 -8 -6 -41 -21 -72 -35 -55 -25 -63 -26 -267 -26 -134 0 -211 4 -211 10 0 6 6 10 14 10 8 0 16 7 20 15 3 8 12 15 21 15 8 0 41 13 72 29 32 16 65 32 73 35 8 3 22 10 30 15 16 9 135 65 160 75 8 3 22 10 30 15 40 24 142 71 154 71 7 0 19 7 26 15 7 8 20 15 30 15 10 0 23 7 30 15 7 8 23 15 35 15 12 0 28 7 35 15 7 8 19 15 26 15 8 0 40 13 71 29 32 16 65 32 73 35 8 3 22 10 30 15 8 5 22 12 30 15 8 3 22 10 30 15 20 12 80 38 103 45 9 3 17 10 17 16 0 7 -173 10 -530 10 -319 0 -530 4 -530 9 0 9 23 21 195 100 50 23 117 56 150 74 l60 32 405 5 c345 4 1160 -1 1168 -8z m-2173 -252 c3 -6 -2 -13 -12 -16 -10 -3 -31 -12 -46 -20 -16 -7 -34 -14 -42 -14 -7 0 -18 -7 -25 -15 -7 -8 -23 -15 -35 -15 -12 0 -28 -7 -35 -15 -7 -8 -20 -15 -30 -15 -10 0 -23 -7 -30 -15 -7 -8 -18 -15 -25 -15 -8 0 -35 -11 -62 -24 -27 -14 -60 -30 -73 -35 -14 -6 -32 -15 -40 -20 -14 -9 -128 -62 -160 -75 -8 -3 -22 -10 -30 -15 -21 -12 -214 -102 -282 -131 -13 -5 -30 -14 -38 -19 -8 -5 -42 -22 -75 -39 -116 -57 -113 -57 445 -53 278 2 507 5 509 7 16 14 -59 17 -454 16 -244 -1 -446 2 -449 6 -3 5 14 18 37 29 134 67 169 83 182 83 8 0 15 4 15 9 0 5 10 13 23 16 23 7 41 15 152 66 39 18 86 39 105 48 19 9 37 19 38 24 2 4 9 7 15 7 7 0 43 16 80 35 38 19 75 35 83 35 8 0 14 4 14 9 0 5 10 13 23 16 12 4 49 19 82 35 33 16 67 31 75 34 8 3 22 10 30 15 8 5 43 23 76 40 l62 31 505 0 c278 0 508 -4 511 -8 3 -5 -18 -18 -47 -29 -29 -12 -59 -24 -67 -27 -8 -3 -22 -10 -30 -15 -15 -9 -73 -35 -100 -45 -8 -3 -23 -10 -32 -16 -10 -5 -26 -15 -35 -20 -10 -6 -25 -13 -33 -16 -8 -3 -24 -10 -35 -15 -11 -5 -31 -13 -45 -19 -14 -5 -32 -14 -40 -19 -8 -5 -44 -23 -80 -39 -36 -17 -108 -51 -160 -75 -52 -25 -102 -48 -110 -51 -8 -3 -22 -10 -30 -15 -8 -5 -36 -19 -62 -31 -27 -12 -50 -26 -54 -31 -3 -5 -13 -9 -23 -9 -9 0 -22 -5 -29 -12 -15 -15 -81 -38 -110 -38 -13 0 -35 -14 -53 -35 -17 -19 -35 -35 -41 -35 -9 0 -201 -90 -318 -150 l-55 -27 -804 -4 c-637 -3 -805 -1 -808 8 -3 7 4 16 14 19 17 6 100 45 298 139 50 24 97 46 105 49 8 3 22 10 30 15 8 5 44 23 80 39 68 31 224 104 325 152 33 16 67 31 75 34 8 3 22 10 30 14 8 5 33 17 55 27 22 9 47 21 55 26 8 5 22 12 30 15 8 3 42 18 75 34 33 16 67 31 75 34 8 3 22 10 30 15 8 5 22 12 30 15 8 3 22 10 30 15 15 9 73 35 100 45 8 3 22 10 30 15 8 5 42 23 75 39 l60 31 237 0 c149 1 239 -3 243 -9z m2173 -547 c-2 -9 -43 -43 -53 -43 -8 0 -193 -87 -215 -101 -8 -5 -22 -12 -30 -15 -8 -3 -44 -19 -80 -36 -72 -34 -117 -54 -140 -62 -8 -3 -22 -10 -30 -15 -8 -5 -22 -12 -30 -15 -8 -3 -22 -10 -30 -15 -8 -5 -22 -12 -30 -15 -8 -3 -22 -10 -30 -14 -15 -9 -71 -35 -100 -46 -8 -3 -22 -10 -30 -15 -8 -5 -22 -12 -30 -15 -8 -3 -22 -10 -30 -15 -15 -9 -73 -35 -100 -45 -8 -3 -22 -10 -30 -15 -18 -10 -142 -68 -185 -86 -28 -12 -222 -107 -255 -125 -8 -5 -45 -22 -81 -39 l-65 -31 -204 2 c-152 2 -204 6 -208 16 -2 7 5 12 16 12 11 0 25 7 32 15 7 8 18 15 25 15 8 0 26 7 42 14 15 8 35 17 43 20 8 3 22 10 30 15 8 5 35 19 60 31 25 11 52 25 60 29 16 9 75 35 100 45 8 3 22 10 30 15 8 5 22 12 30 15 8 3 22 10 30 15 19 11 140 68 160 75 8 3 22 10 30 15 8 5 22 12 30 15 8 3 22 10 30 15 15 9 73 35 100 45 8 3 22 10 30 15 8 5 22 12 30 15 8 3 22 10 30 15 20 12 80 38 103 45 30 9 14 31 -25 34 -24 2 -41 -3 -53 -14 -14 -14 -21 -15 -37 -5 -14 9 -137 12 -488 11 -460 0 -510 3 -447 30 12 6 29 14 37 19 37 23 329 160 364 171 22 7 62 10 95 7 31 -3 121 -2 201 2 194 9 1301 4 1298 -6z m-1073 -262 c0 -8 -14 -18 -32 -23 -18 -5 -35 -13 -38 -18 -3 -6 -14 -10 -24 -10 -10 0 -24 -7 -31 -15 -7 -8 -20 -15 -30 -15 -10 0 -23 -7 -30 -15 -7 -8 -20 -15 -30 -15 -10 0 -23 -7 -30 -15 -7 -8 -23 -15 -35 -15 -12 0 -28 -7 -35 -15 -7 -8 -17 -15 -23 -15 -15 0 -96 -40 -103 -51 -3 -5 -16 -9 -28 -9 -13 0 -29 -7 -36 -15 -7 -8 -17 -15 -23 -15 -6 0 -52 -20 -101 -44 -50 -24 -98 -47 -106 -50 -8 -3 -22 -10 -30 -15 -8 -5 -22 -12 -30 -15 -8 -3 -22 -10 -30 -15 -8 -5 -55 -29 -103 -52 l-88 -43 -522 0 c-340 -1 -523 2 -524 9 -2 6 8 13 21 16 13 4 91 39 172 79 82 40 163 79 179 86 47 20 118 54 135 64 14 8 125 59 160 74 8 3 22 10 30 15 8 5 35 19 60 31 25 11 52 25 60 30 8 5 35 18 60 30 48 23 61 29 100 51 20 11 107 15 425 19 626 8 660 7 660 -9z m1117 -532 c20 -11 15 -29 -8 -29 -8 0 -58 -21 -112 -46 -149 -71 -337 -158 -362 -168 -8 -3 -22 -10 -30 -15 -14 -9 -128 -62 -160 -75 -8 -3 -22 -10 -30 -14 -15 -9 -71 -35 -100 -46 -8 -3 -22 -10 -30 -15 -8 -5 -31 -16 -50 -24 -54 -24 -123 -57 -140 -67 -36 -20 -146 -70 -156 -70 -7 0 -17 -7 -24 -15 -7 -8 -23 -15 -35 -15 -12 0 -28 -7 -35 -15 -7 -8 -20 -15 -30 -15 -10 0 -23 -7 -30 -15 -7 -8 -19 -15 -27 -15 -8 0 -27 -6 -41 -14 -15 -8 -34 -17 -42 -20 -8 -3 -22 -10 -30 -15 -8 -5 -22 -12 -30 -15 -8 -3 -22 -10 -30 -14 -68 -39 -83 -41 -300 -42 -118 -1 -223 -1 -232 -1 -25 1 -23 31 2 31 11 0 46 13 78 29 31 17 64 32 72 35 8 3 22 10 30 15 14 9 128 62 160 75 8 3 22 10 30 15 8 5 47 24 85 41 39 17 77 36 85 41 8 5 21 11 28 14 6 3 18 7 25 10 6 3 19 9 27 13 15 9 71 35 100 46 8 3 22 10 30 15 8 5 44 23 80 39 78 36 150 70 170 81 8 5 36 19 63 31 26 12 45 25 42 30 -6 10 -417 12 -490 3 -91 -11 -12 -21 183 -22 118 -1 182 -5 182 -11 0 -6 -8 -13 -17 -16 -23 -7 -83 -34 -103 -46 -8 -4 -21 -10 -27 -13 -7 -3 -19 -7 -25 -10 -7 -3 -20 -9 -28 -14 -15 -9 -73 -35 -100 -45 -8 -3 -22 -10 -30 -15 -8 -5 -22 -12 -30 -15 -8 -3 -22 -10 -30 -15 -15 -9 -73 -35 -100 -45 -8 -3 -22 -10 -30 -15 -8 -5 -31 -16 -50 -24 -53 -24 -123 -57 -140 -67 -8 -4 -44 -22 -80 -38 -70 -33 -206 -98 -230 -111 -77 -41 -55 -39 -585 -42 -436 -2 -510 -1 -510 12 0 7 11 16 25 19 14 3 63 24 110 47 47 23 105 51 130 63 25 11 52 25 60 30 14 8 93 45 152 70 13 5 30 14 38 19 17 10 136 66 160 75 8 3 22 10 30 15 42 25 142 71 155 71 8 0 15 4 15 10 0 5 12 13 26 16 14 4 45 17 67 30 91 50 133 65 187 66 30 0 165 3 300 7 l245 6 -259 5 c-195 4 -260 8 -264 17 -2 7 5 16 15 19 10 3 59 25 108 49 50 24 133 63 185 88 52 25 106 48 120 50 60 9 1575 5 1592 -4z m-2216 -243 c19 -14 19 -15 -1 -21 -25 -8 -85 -34 -105 -46 -8 -5 -21 -11 -27 -14 -7 -3 -19 -7 -25 -10 -7 -3 -20 -9 -28 -14 -16 -10 -136 -66 -160 -75 -8 -3 -22 -10 -30 -15 -19 -11 -140 -68 -160 -75 -8 -3 -22 -10 -30 -15 -16 -10 -136 -66 -160 -75 -8 -3 -22 -10 -30 -15 -8 -5 -36 -19 -62 -31 -27 -12 -50 -26 -54 -31 -3 -5 -11 -9 -18 -9 -12 0 -80 -29 -116 -49 -8 -5 -36 -18 -62 -30 -53 -25 -60 -32 -49 -49 6 -10 23 -11 72 -3 92 14 989 15 989 1 0 -6 -8 -13 -17 -16 -10 -3 -25 -10 -33 -15 -8 -5 -28 -15 -45 -23 -32 -14 -211 -99 -311 -147 l-61 -30 -769 1 c-705 0 -834 4 -771 25 27 8 41 14 57 24 15 10 253 124 280 135 8 3 22 10 30 15 16 9 135 65 160 75 8 3 22 10 30 15 8 5 36 19 62 31 27 12 50 26 54 31 3 5 16 9 28 9 13 0 29 7 36 15 7 8 18 15 25 15 6 0 32 11 56 25 24 14 51 27 59 31 8 3 42 18 75 34 33 15 67 31 75 34 8 3 22 10 30 14 15 9 71 35 100 46 8 3 22 10 30 15 45 26 80 41 93 41 8 0 20 7 27 15 7 8 20 15 30 15 10 0 23 7 30 15 7 8 20 15 30 15 10 0 23 7 30 15 7 8 18 15 25 15 7 0 32 9 56 20 45 21 55 26 99 51 18 10 78 16 210 19 102 3 194 7 206 8 11 1 29 -4 40 -12z m2209 -576 c3 -6 -2 -13 -12 -16 -16 -6 -61 -25 -168 -74 -22 -10 -47 -21 -55 -24 -8 -3 -22 -10 -30 -15 -15 -9 -73 -35 -100 -45 -8 -3 -22 -10 -30 -15 -8 -4 -44 -22 -80 -38 -80 -36 -174 -81 -260 -122 -36 -17 -70 -31 -76 -31 -7 0 -17 -7 -24 -15 -7 -8 -20 -15 -30 -15 -10 0 -23 -7 -30 -15 -7 -8 -23 -15 -35 -15 -12 0 -28 -7 -35 -15 -7 -8 -18 -15 -25 -15 -8 0 -26 -7 -42 -14 -15 -8 -35 -17 -43 -20 -8 -3 -22 -10 -30 -15 -15 -9 -73 -35 -100 -45 -8 -3 -22 -10 -30 -14 -8 -5 -33 -17 -55 -27 -22 -9 -47 -21 -55 -26 -8 -5 -22 -12 -30 -15 -23 -9 -139 -63 -193 -90 -44 -22 -59 -23 -263 -25 -118 0 -218 1 -220 4 -3 3 6 11 20 19 36 19 108 54 126 62 8 3 22 10 30 15 15 9 73 35 100 45 8 3 22 10 30 15 30 19 146 71 156 71 7 0 17 7 24 15 7 8 23 15 35 15 12 0 28 7 35 15 7 8 20 15 30 15 10 0 23 7 30 15 7 8 20 15 29 15 10 0 26 7 37 15 10 8 26 15 35 15 9 0 22 7 29 15 7 8 20 15 30 15 10 0 23 7 30 15 7 8 23 15 35 15 12 0 28 7 35 15 7 8 20 15 29 15 9 0 25 7 35 15 11 8 27 15 37 15 9 0 22 7 29 15 7 8 19 15 28 15 19 0 52 29 52 46 0 9 -19 11 -72 8 -40 -2 -277 -4 -525 -4 -390 0 -453 -2 -453 -15 0 -19 63 -30 104 -18 44 13 846 18 846 5 0 -6 -12 -15 -27 -21 -16 -6 -35 -15 -43 -20 -15 -9 -73 -35 -100 -45 -8 -3 -22 -10 -30 -15 -15 -9 -73 -35 -100 -45 -8 -3 -22 -10 -30 -15 -40 -24 -142 -71 -154 -71 -7 0 -19 -7 -26 -15 -7 -8 -19 -15 -28 -15 -18 0 -160 -69 -168 -81 -3 -5 -13 -9 -22 -9 -9 0 -44 -13 -77 -29 -33 -16 -67 -32 -75 -35 -8 -3 -22 -10 -30 -15 -8 -6 -53 -28 -100 -50 l-85 -40 -522 -4 c-477 -4 -567 -1 -505 19 27 9 69 28 170 78 51 25 100 46 108 46 8 0 14 4 14 9 0 5 10 13 23 16 12 4 49 20 83 36 33 16 64 29 68 29 4 0 14 7 22 15 9 8 24 15 33 15 10 0 24 7 31 15 7 8 20 15 30 15 10 0 23 7 30 15 7 8 18 15 25 15 8 0 26 6 42 14 15 8 71 35 123 60 133 62 186 88 223 108 18 9 46 17 62 18 35 0 75 24 75 45 0 7 10 17 22 21 23 7 317 145 358 168 21 12 161 14 832 15 532 1 809 -2 813 -9z m-2230 -240 c3 -6 -4 -15 -17 -20 -13 -5 -30 -14 -38 -19 -8 -5 -60 -30 -115 -56 -55 -26 -107 -51 -115 -56 -8 -5 -22 -12 -30 -15 -8 -3 -42 -19 -75 -34 -33 -16 -67 -31 -75 -34 -8 -3 -22 -10 -30 -15 -14 -9 -128 -62 -160 -75 -8 -3 -22 -10 -30 -15 -15 -9 -161 -78 -280 -133 -36 -16 -72 -34 -80 -39 -8 -5 -23 -12 -32 -15 -10 -4 -18 -13 -18 -22 0 -13 60 -14 530 -10 447 4 530 3 530 -9 0 -7 -8 -16 -17 -19 -10 -3 -31 -11 -48 -19 -75 -34 -274 -128 -307 -145 -35 -18 -79 -20 -820 -25 -431 -3 -793 -8 -805 -10 -17 -4 -20 -1 -16 16 3 11 13 23 22 26 19 5 140 61 161 74 8 5 22 12 30 15 50 21 101 47 106 55 3 5 16 9 28 9 13 0 29 7 36 15 7 8 20 15 30 15 10 0 23 7 30 15 7 8 20 15 30 15 10 0 23 7 30 15 7 8 19 15 26 15 8 0 40 13 71 29 32 16 65 32 73 35 8 3 22 10 30 14 15 9 71 35 100 46 8 3 22 10 30 15 14 9 128 62 160 75 8 3 22 10 30 15 14 9 128 62 160 75 8 3 22 10 30 15 16 9 135 65 160 75 8 3 22 10 30 15 8 5 22 12 30 15 8 3 22 10 30 14 89 51 107 54 335 62 116 3 218 7 227 8 9 1 20 -3 23 -8z m2225 -540 c-1 -13 -40 -50 -52 -50 -7 0 -40 -13 -73 -29 -135 -66 -191 -91 -201 -91 -7 0 -17 -7 -24 -15 -7 -8 -20 -15 -30 -15 -10 0 -23 -7 -30 -15 -7 -8 -20 -15 -29 -15 -9 0 -43 -13 -76 -29 -33 -16 -67 -32 -75 -35 -8 -3 -22 -10 -30 -15 -8 -5 -45 -23 -82 -40 -67 -30 -136 -62 -260 -120 -35 -16 -70 -32 -78 -35 -8 -3 -22 -10 -30 -15 -8 -5 -22 -12 -30 -15 -8 -3 -22 -10 -30 -15 -15 -8 -77 -37 -215 -101 -38 -17 -77 -36 -85 -41 -8 -5 -22 -12 -30 -15 -8 -3 -42 -19 -75 -34 l-60 -29 -229 2 c-173 2 -230 5 -233 15 -3 7 4 12 15 12 11 0 25 7 32 15 7 8 19 15 27 15 8 0 27 6 41 14 15 8 34 17 42 20 8 3 22 10 30 15 8 5 22 12 30 15 8 3 22 10 30 15 14 9 128 62 160 75 8 3 22 10 30 14 15 9 71 35 100 46 8 3 22 10 30 15 8 5 22 12 30 15 8 3 22 10 30 14 8 5 33 17 55 27 22 9 47 21 55 26 8 5 22 12 30 15 8 3 38 17 67 30 29 13 62 29 75 34 13 5 30 14 38 19 36 21 109 51 124 51 9 0 16 2 16 4 0 2 3 12 6 21 6 15 -13 16 -242 10 -542 -13 -814 -15 -814 -6 0 16 47 43 185 106 33 15 87 41 120 57 117 57 114 57 489 58 193 0 351 2 352 3 5 4 874 2 874 -3z m-1107 -236 c7 -7 -42 -54 -57 -54 -6 0 -53 -21 -106 -47 -102 -50 -206 -98 -230 -107 -8 -3 -22 -10 -30 -15 -15 -10 -142 -70 -232 -110 -26 -12 -52 -21 -57 -21 -6 0 -11 -4 -11 -10 0 -5 -12 -13 -27 -16 -15 -4 -34 -13 -41 -21 -7 -7 -22 -13 -31 -13 -10 0 -24 -7 -31 -15 -7 -8 -20 -15 -30 -15 -10 0 -23 -7 -30 -15 -7 -8 -18 -15 -25 -15 -6 0 -34 -12 -61 -28 l-49 -27 -509 -3 c-339 -2 -512 0 -519 7 -7 7 -4 12 9 16 10 4 34 13 52 21 17 8 47 20 65 28 17 8 39 17 47 20 8 3 22 10 30 15 8 5 22 12 30 15 8 3 22 10 30 15 8 5 31 16 50 24 102 45 130 60 136 68 3 5 13 9 23 9 10 0 43 13 74 30 31 17 63 30 72 30 8 0 15 4 15 9 0 5 10 13 23 16 12 4 49 19 82 35 33 16 67 31 75 34 8 3 22 10 30 15 8 5 35 19 60 31 50 24 60 29 110 56 32 17 60 19 320 20 336 2 701 12 708 19 7 7 27 6 35 -1z"/> <path d="M9760 5506 c0 -9 -11 -18 -25 -22 -13 -3 -29 -12 -36 -20 -6 -8 -20 -14 -29 -14 -16 0 -52 -15 -100 -42 -8 -4 -22 -11 -30 -14 -8 -3 -27 -12 -42 -20 -14 -8 -33 -14 -42 -14 -9 0 -16 -4 -16 -9 0 -5 -10 -13 -22 -16 -13 -4 -52 -20 -88 -37 -63 -30 -98 -45 -150 -66 -114 -44 -190 -92 -190 -122 0 -16 11 -19 93 -24 50 -4 413 -6 805 -4 391 2 712 0 712 -5 0 -4 -14 -10 -30 -14 -17 -3 -33 -10 -36 -14 -3 -5 -16 -9 -29 -9 -13 0 -28 -6 -32 -12 -9 -14 -63 -42 -100 -53 -13 -3 -23 -11 -23 -16 0 -5 -5 -9 -11 -9 -9 0 -148 -66 -189 -89 -8 -5 -26 -13 -40 -19 -14 -6 -46 -20 -72 -31 -26 -12 -52 -21 -57 -21 -6 0 -11 -4 -11 -10 0 -5 -4 -10 -10 -10 -18 0 -110 -44 -110 -52 0 -4 -5 -8 -11 -8 -9 0 -208 -96 -249 -119 -30 -18 -88 -41 -104 -41 -9 0 -16 -4 -16 -9 0 -5 -10 -13 -22 -16 -27 -8 -91 -38 -98 -46 -3 -3 -18 -9 -33 -13 -16 -4 -46 -18 -67 -31 -21 -13 -51 -27 -67 -31 -15 -4 -30 -10 -33 -14 -13 -18 -107 -50 -146 -50 -33 0 -46 -5 -54 -19 -21 -40 -14 -44 63 -38 39 3 121 8 181 11 60 4 112 8 114 11 12 12 -8 13 -81 6 -43 -4 -81 -3 -84 2 -6 10 36 57 51 57 10 0 120 50 156 71 8 5 22 12 30 15 8 3 22 10 30 15 8 5 22 12 30 15 29 11 85 37 100 46 8 4 22 11 30 14 8 3 42 18 75 34 33 15 67 31 75 34 8 3 23 10 33 16 9 5 25 15 35 20 9 6 24 13 32 16 25 10 84 36 100 45 8 4 35 18 60 29 25 12 52 26 60 31 8 5 22 12 30 15 24 9 144 65 160 75 8 5 22 12 30 15 27 10 85 36 100 45 8 5 22 12 30 15 20 8 127 58 225 105 148 71 139 69 362 69 l205 0 -23 -25 c-13 -13 -30 -25 -37 -25 -8 0 -26 -6 -40 -14 -25 -13 -106 -51 -164 -76 -13 -5 -30 -14 -38 -19 -8 -4 -33 -16 -55 -26 -22 -9 -47 -21 -55 -26 -8 -5 -22 -12 -30 -15 -29 -11 -85 -37 -100 -46 -8 -4 -22 -11 -30 -14 -30 -12 -205 -96 -220 -105 -8 -5 -22 -12 -30 -15 -27 -10 -85 -36 -100 -45 -8 -5 -22 -12 -30 -15 -8 -3 -27 -12 -42 -20 -14 -8 -31 -14 -38 -14 -17 0 -72 -41 -65 -48 10 -10 1048 -1 1066 9 10 5 20 5 23 1 6 -10 -30 -52 -44 -52 -5 0 -63 -25 -127 -56 -65 -31 -138 -65 -163 -76 -25 -10 -54 -24 -64 -30 -50 -27 -103 -30 -526 -33 -556 -4 -532 -3 -450 -21 47 -10 100 -13 190 -8 186 8 620 10 620 2 0 -4 -9 -10 -20 -13 -11 -3 -20 -10 -20 -15 0 -5 -10 -12 -22 -15 -24 -7 -83 -32 -108 -47 -8 -4 -22 -11 -30 -14 -8 -3 -44 -20 -80 -36 -59 -28 -94 -43 -215 -98 -22 -10 -68 -32 -103 -49 -34 -17 -69 -31 -77 -31 -8 0 -15 -4 -15 -9 0 -5 -10 -12 -22 -16 -13 -3 -50 -19 -83 -35 -33 -16 -91 -43 -130 -60 -38 -18 -97 -45 -131 -61 -33 -16 -66 -29 -72 -29 -7 0 -12 -4 -12 -10 0 -5 -5 -10 -11 -10 -6 0 -45 -16 -87 -36 -42 -20 -99 -46 -127 -59 -27 -13 -85 -40 -127 -59 -42 -20 -81 -36 -87 -36 -15 0 -35 -41 -24 -50 4 -5 369 -10 810 -12 634 -2 803 -6 803 -15 0 -8 -13 -13 -29 -13 -17 0 -33 -4 -36 -10 -3 -5 -16 -10 -29 -10 -12 0 -31 -7 -42 -15 -10 -8 -26 -15 -34 -15 -9 0 -23 -9 -33 -20 -9 -11 -23 -20 -31 -20 -8 0 -41 -13 -73 -29 -87 -44 -165 -79 -190 -86 -13 -4 -23 -10 -23 -15 0 -4 -16 -11 -35 -14 -19 -4 -35 -11 -35 -16 0 -6 -5 -10 -11 -10 -18 0 -95 -39 -109 -55 -7 -8 -23 -15 -36 -15 -13 0 -24 -4 -24 -9 0 -5 -12 -12 -26 -15 -15 -4 -33 -14 -41 -21 -8 -8 -22 -15 -31 -15 -9 0 -26 -7 -36 -15 -11 -8 -30 -15 -43 -15 -13 0 -23 -4 -23 -10 0 -5 -7 -10 -15 -10 -8 0 -32 -9 -52 -20 -21 -11 -43 -20 -50 -20 -7 0 -13 -4 -13 -9 0 -5 -13 -12 -30 -16 -16 -4 -30 -11 -30 -16 0 -5 -7 -9 -16 -9 -8 0 -32 -9 -52 -19 -20 -11 -62 -30 -92 -44 -30 -14 -98 -45 -150 -70 -52 -25 -105 -48 -118 -52 -39 -11 -23 -40 23 -43 35 -3 45 2 75 33 18 19 39 35 46 35 11 0 51 18 94 42 8 4 22 11 30 14 24 9 144 65 160 75 8 5 22 12 30 15 8 3 29 11 45 19 17 7 37 16 45 19 8 3 22 10 30 15 37 21 146 71 156 71 6 0 17 7 24 15 7 8 21 15 31 15 9 0 24 7 33 15 8 8 20 15 26 15 11 0 48 17 90 41 8 5 22 12 30 15 29 11 85 37 100 46 8 4 22 11 30 14 24 9 144 65 160 75 8 5 22 12 30 15 8 3 42 19 75 35 33 16 65 29 71 29 6 0 17 7 24 15 7 8 23 15 35 15 12 0 28 7 35 15 7 8 21 15 32 15 10 0 21 7 24 15 4 8 15 15 25 15 11 0 32 8 46 18 23 14 57 18 228 20 174 4 203 2 214 -12 11 -13 10 -17 -5 -22 -11 -3 -34 -12 -52 -20 -18 -8 -39 -14 -48 -14 -8 0 -17 -7 -20 -15 -4 -8 -16 -15 -29 -15 -12 0 -28 -7 -35 -15 -7 -8 -18 -15 -25 -15 -12 0 -52 -18 -95 -42 -8 -4 -22 -11 -30 -14 -8 -3 -22 -10 -30 -15 -8 -5 -22 -12 -30 -15 -27 -10 -85 -36 -100 -45 -8 -5 -22 -12 -30 -15 -24 -9 -144 -65 -160 -75 -8 -5 -22 -12 -30 -15 -8 -3 -28 -12 -43 -20 -16 -7 -34 -14 -42 -14 -7 0 -18 -7 -25 -15 -7 -8 -20 -15 -29 -15 -9 0 -22 -5 -29 -12 -6 -6 -39 -21 -74 -33 -35 -12 -63 -28 -63 -35 0 -10 104 -12 553 -11 350 2 552 -1 552 -7 0 -12 -47 -40 -117 -70 -28 -12 -114 -52 -190 -88 -170 -83 -215 -95 -309 -87 -69 6 -152 -2 -140 -14 14 -14 93 -21 123 -10 18 6 36 8 39 4 10 -9 -44 -50 -85 -64 -19 -6 -47 -21 -62 -32 -16 -12 -37 -21 -47 -21 -11 0 -25 -7 -32 -15 -7 -8 -18 -15 -24 -15 -6 0 -38 -13 -71 -29 -33 -16 -95 -46 -138 -67 -42 -20 -80 -41 -83 -45 -3 -5 -16 -9 -28 -9 -13 0 -29 -7 -36 -15 -7 -8 -20 -15 -30 -15 -10 0 -23 -7 -30 -15 -7 -8 -23 -15 -36 -15 -13 0 -24 -4 -24 -9 0 -5 -10 -13 -22 -16 -24 -7 -83 -32 -108 -47 -8 -4 -22 -11 -30 -14 -23 -9 -69 -29 -140 -62 -100 -47 -202 -93 -235 -107 -16 -7 -59 -27 -95 -44 -36 -16 -92 -42 -125 -57 -92 -41 -147 -76 -137 -86 5 -5 347 -8 810 -8 536 0 803 -3 807 -10 3 -6 -2 -13 -12 -16 -10 -3 -25 -10 -33 -15 -8 -5 -22 -12 -30 -15 -8 -3 -27 -12 -42 -20 -14 -8 -33 -14 -41 -14 -8 0 -20 -7 -27 -15 -7 -8 -23 -15 -35 -15 -12 0 -28 -7 -35 -15 -7 -8 -17 -15 -23 -15 -15 0 -96 -40 -103 -51 -3 -5 -16 -9 -28 -9 -13 0 -29 -7 -36 -15 -7 -8 -17 -15 -23 -15 -15 0 -96 -40 -103 -51 -3 -5 -16 -9 -28 -9 -13 0 -29 -7 -36 -15 -7 -8 -20 -15 -30 -15 -10 0 -23 -7 -30 -15 -7 -8 -23 -15 -36 -15 -13 0 -24 -4 -24 -10 0 -5 -12 -13 -27 -16 -16 -4 -52 -20 -81 -36 -29 -15 -59 -28 -67 -28 -8 0 -15 -4 -15 -9 0 -5 -10 -13 -22 -16 -39 -11 -106 -44 -113 -55 -3 -5 -14 -10 -23 -10 -15 0 -116 -45 -162 -71 -8 -5 -22 -12 -30 -15 -50 -21 -101 -47 -106 -55 -3 -5 -19 -9 -35 -9 -17 0 -32 -6 -35 -15 -4 -8 -16 -15 -28 -15 -11 0 -30 -7 -40 -15 -11 -8 -28 -15 -39 -15 -14 0 -18 -6 -15 -27 l3 -28 775 -3 c426 -1 781 -4 788 -7 20 -7 4 -25 -22 -25 -13 0 -29 -7 -36 -15 -7 -8 -20 -15 -30 -15 -10 0 -23 -7 -30 -15 -7 -8 -20 -15 -30 -15 -10 0 -23 -7 -30 -15 -7 -8 -23 -15 -35 -15 -12 0 -28 -7 -35 -15 -7 -8 -18 -15 -25 -15 -8 0 -28 -8 -47 -17 -18 -9 -45 -22 -60 -30 -14 -7 -33 -13 -42 -13 -9 0 -16 -4 -16 -10 0 -5 -6 -10 -12 -10 -12 0 -87 -34 -221 -101 -31 -16 -64 -29 -72 -29 -8 0 -15 -4 -15 -10 0 -5 -12 -13 -27 -16 -15 -4 -34 -13 -41 -21 -7 -7 -22 -13 -32 -13 -10 0 -20 -7 -24 -15 -3 -8 -18 -15 -33 -15 -15 0 -37 -7 -47 -15 -11 -8 -30 -15 -43 -15 -13 0 -23 -4 -23 -9 0 -5 -13 -12 -30 -16 -16 -4 -30 -11 -30 -16 0 -5 -5 -9 -12 -9 -6 0 -41 -14 -77 -31 -36 -16 -84 -39 -106 -49 -22 -10 -69 -32 -105 -48 -36 -17 -85 -40 -110 -51 -128 -60 -111 -74 91 -76 465 -6 1416 -7 1430 -1 10 4 20 3 24 -3 3 -6 0 -11 -8 -11 -8 0 -20 -6 -26 -14 -7 -8 -26 -18 -42 -21 -16 -4 -29 -11 -29 -16 0 -5 -6 -9 -12 -9 -7 -1 -31 -9 -53 -20 -22 -11 -46 -19 -52 -20 -7 0 -13 -4 -13 -10 0 -5 -6 -10 -12 -10 -11 0 -126 -53 -231 -106 -16 -8 -35 -14 -42 -14 -8 0 -20 -6 -27 -13 -7 -7 -26 -19 -43 -27 l-30 -15 36 -3 c24 -2 52 5 84 22 26 15 56 26 65 26 10 0 23 7 30 15 7 8 18 15 24 15 6 0 40 14 76 32 36 17 79 37 95 44 17 7 59 26 95 42 158 74 221 105 226 113 7 12 411 12 418 0 4 -5 -15 -19 -41 -31 -27 -12 -55 -26 -63 -31 -8 -5 -22 -12 -30 -15 -27 -10 -85 -36 -100 -45 -8 -5 -22 -12 -30 -15 -8 -3 -28 -12 -43 -20 -16 -7 -34 -14 -42 -14 -7 0 -18 -7 -25 -15 -7 -8 -20 -15 -30 -15 -10 0 -23 -7 -30 -15 -7 -8 -23 -15 -35 -15 -12 0 -28 -7 -35 -15 -7 -8 -20 -15 -30 -15 -10 0 -23 -7 -30 -15 -7 -8 -21 -15 -31 -15 -10 0 -21 -4 -24 -10 -18 -30 108 5 185 51 8 5 22 12 30 15 55 22 88 37 112 50 14 7 33 14 42 14 9 0 16 4 16 9 0 5 10 13 23 16 38 11 105 44 112 55 3 5 17 10 31 10 13 0 24 4 24 10 0 5 12 13 28 16 15 4 45 19 67 33 l40 26 325 -1 c179 -1 420 -2 535 -3 l210 -2 -45 -20 c-25 -11 -58 -27 -75 -34 -16 -8 -40 -16 -52 -20 -13 -3 -23 -11 -23 -16 0 -5 -9 -9 -19 -9 -11 0 -22 -4 -26 -9 -6 -11 -108 -61 -124 -61 -5 0 -11 -3 -13 -7 -3 -9 -44 -29 -123 -63 -27 -12 -70 -31 -95 -43 l-45 -22 41 -3 c29 -2 55 4 89 22 26 15 54 26 60 26 7 0 18 7 25 15 7 8 23 15 35 15 12 0 28 7 35 15 7 8 18 15 25 15 8 0 26 6 42 14 15 8 44 21 63 29 19 8 60 26 90 40 30 14 73 33 95 42 63 26 125 59 125 66 0 4 14 12 30 18 51 17 35 31 -37 31 -38 1 -287 0 -555 0 -269 0 -488 3 -488 7 0 5 24 19 53 31 28 13 79 36 112 52 333 156 236 139 809 141 270 1 516 3 546 4 84 2 493 7 508 6 18 -1 15 -31 -3 -31 -16 0 -77 -39 -83 -52 -2 -5 -14 -8 -27 -8 -12 0 -28 -7 -35 -15 -7 -8 -20 -15 -30 -15 -10 0 -23 -7 -30 -15 -7 -8 -20 -15 -30 -15 -10 0 -23 -7 -30 -15 -7 -8 -20 -15 -30 -15 -10 0 -23 -7 -30 -15 -7 -8 -17 -15 -24 -15 -10 0 -126 -52 -156 -71 -8 -5 -22 -12 -30 -15 -50 -21 -101 -47 -106 -55 -3 -5 -16 -9 -28 -9 -13 0 -29 -7 -36 -15 -7 -8 -20 -15 -30 -15 -10 0 -23 -7 -30 -15 -7 -8 -19 -15 -27 -15 -8 0 -27 -6 -41 -14 -25 -13 -124 -59 -202 -93 -19 -8 -42 -19 -50 -24 -8 -5 -21 -11 -27 -14 -46 -18 -47 -19 -5 -23 30 -2 58 4 97 22 29 14 59 26 64 26 6 0 11 4 11 9 0 5 10 13 23 16 20 6 130 57 270 127 31 15 64 28 72 28 8 0 15 4 15 8 0 5 25 19 55 32 31 13 60 29 66 37 6 7 22 13 35 13 12 0 26 4 29 10 3 5 43 28 88 51 107 54 126 64 140 78 6 6 21 11 33 11 12 0 24 7 28 15 3 8 14 15 24 15 11 0 25 7 32 15 7 8 20 15 30 15 10 0 20 7 24 15 3 8 14 15 24 15 11 0 25 7 32 15 7 8 19 15 26 15 22 0 16 17 -8 24 -13 3 -359 6 -770 6 -658 0 -748 2 -748 15 0 8 9 15 20 15 11 0 51 14 88 31 37 18 81 38 97 45 89 38 125 57 131 65 3 5 16 9 28 9 13 0 29 7 36 15 7 8 18 15 25 15 12 0 52 18 95 42 8 4 22 11 30 14 43 18 91 39 145 64 33 16 80 38 105 50 45 21 64 31 98 50 9 6 24 13 32 16 8 3 41 19 73 35 31 16 64 29 72 29 9 0 18 7 21 15 4 8 11 15 18 15 13 0 79 32 99 48 7 5 24 12 40 16 15 3 27 11 27 16 0 6 9 10 19 10 21 0 37 17 26 28 -3 4 -20 -1 -36 -11 -17 -9 -36 -17 -44 -17 -7 0 -18 -7 -25 -15 -7 -8 -21 -15 -31 -15 -9 0 -24 -7 -32 -15 -8 -7 -26 -17 -41 -21 -14 -3 -29 -10 -32 -15 -3 -5 -13 -9 -23 -9 -10 0 -24 -7 -31 -15 -7 -8 -21 -15 -31 -15 -9 0 -24 -7 -33 -15 -8 -8 -20 -15 -26 -15 -11 0 -48 -17 -90 -41 -8 -5 -22 -12 -30 -15 -27 -10 -85 -36 -100 -45 -8 -5 -22 -12 -30 -15 -8 -3 -42 -19 -75 -35 -33 -16 -65 -29 -71 -29 -7 0 -17 -7 -24 -15 -7 -8 -23 -15 -35 -15 -12 0 -28 -7 -35 -15 -7 -8 -20 -15 -30 -15 -10 0 -23 -7 -30 -15 -7 -8 -23 -15 -35 -15 -12 0 -28 -7 -35 -15 -7 -8 -20 -15 -29 -15 -10 0 -26 -7 -37 -15 -10 -8 -26 -15 -35 -15 -9 0 -22 -7 -29 -15 -7 -8 -23 -15 -35 -15 -12 0 -28 -7 -35 -15 -7 -8 -20 -15 -29 -15 -9 0 -25 -7 -35 -15 -11 -8 -28 -15 -37 -15 -10 0 -22 -6 -26 -13 -4 -8 -17 -16 -28 -20 -11 -3 -38 -12 -61 -21 -30 -11 -100 -16 -253 -20 l-212 -6 18 25 c10 13 25 25 33 25 14 0 126 50 160 71 8 5 22 12 30 15 27 10 85 36 100 45 8 5 22 12 30 15 24 9 144 65 160 75 8 5 22 12 30 15 27 10 85 36 100 45 8 5 22 12 30 15 35 13 204 90 230 105 22 13 61 30 100 44 19 7 36 20 38 28 3 14 -55 16 -543 13 -306 -2 -548 0 -551 5 -3 5 -1 9 5 9 5 0 16 6 23 13 7 7 33 23 58 34 172 81 252 119 302 144 l57 28 801 2 c750 1 802 0 814 -16 12 -16 14 -17 38 -1 13 9 28 13 31 9 4 -3 7 3 7 15 l0 22 -787 2 c-618 2 -787 6 -791 16 -2 7 6 12 21 12 14 0 38 6 54 14 15 8 60 29 98 47 39 17 77 36 85 40 8 5 22 12 30 15 8 3 27 12 42 20 14 8 31 14 38 14 6 0 18 7 26 15 9 8 24 15 33 15 10 0 24 7 31 15 7 8 20 15 29 15 9 0 25 7 35 15 11 8 27 15 37 15 9 0 19 7 23 15 3 8 14 15 24 15 11 0 44 14 75 30 31 16 63 30 72 30 8 0 15 3 15 8 0 4 24 18 53 31 28 12 59 27 67 32 8 5 22 12 30 15 50 21 101 47 106 55 3 5 16 9 29 9 12 0 25 7 29 15 3 8 16 15 29 15 14 0 30 7 37 15 7 8 20 15 30 15 10 0 23 7 30 15 7 8 20 15 30 15 10 0 23 7 30 15 7 8 21 15 32 15 10 0 21 7 24 15 4 8 17 15 30 15 14 0 27 7 30 15 4 8 14 15 24 15 10 0 23 6 30 14 6 8 21 16 32 18 12 2 23 9 26 17 3 10 -2 11 -19 6 -13 -4 -26 -11 -29 -16 -3 -4 -18 -11 -33 -14 -15 -4 -27 -11 -27 -16 0 -5 -9 -9 -19 -9 -11 0 -26 -7 -35 -15 -8 -8 -23 -15 -34 -15 -11 0 -25 -7 -32 -15 -7 -8 -20 -15 -30 -15 -10 0 -23 -7 -30 -15 -7 -8 -20 -15 -30 -15 -10 0 -23 -7 -30 -15 -7 -8 -23 -15 -35 -15 -13 0 -25 -7 -29 -15 -3 -8 -16 -15 -29 -15 -14 0 -30 -7 -37 -15 -7 -8 -20 -15 -30 -15 -10 0 -23 -7 -30 -15 -7 -8 -23 -15 -35 -15 -12 0 -28 -7 -35 -15 -7 -8 -20 -15 -30 -15 -10 0 -23 -7 -30 -15 -7 -8 -20 -15 -30 -15 -10 0 -23 -7 -30 -15 -7 -8 -21 -15 -31 -15 -9 0 -24 -7 -33 -15 -8 -8 -20 -15 -26 -15 -11 0 -48 -17 -90 -41 -8 -5 -22 -12 -30 -15 -27 -10 -85 -36 -100 -45 -8 -5 -22 -12 -30 -15 -44 -16 -205 -90 -230 -105 -8 -5 -22 -12 -30 -15 -8 -3 -42 -19 -75 -35 -33 -16 -66 -29 -73 -29 -7 0 -15 -7 -18 -15 -4 -8 -15 -15 -25 -15 -11 0 -31 -7 -44 -16 -21 -13 -59 -16 -246 -15 -122 1 -225 4 -230 7 -15 9 1 24 25 24 13 0 29 7 36 15 7 8 20 15 29 15 10 0 26 7 37 15 10 8 26 15 35 15 9 0 22 7 29 15 7 8 20 15 29 15 14 0 124 48 161 71 8 5 22 12 30 15 27 10 85 36 100 45 8 5 22 12 30 15 29 11 85 37 100 46 8 4 22 11 30 14 27 10 85 36 100 45 8 5 22 12 30 15 29 11 85 37 100 46 8 4 22 11 30 14 8 3 22 10 30 15 8 5 22 12 30 15 74 29 102 42 103 50 1 5 -231 10 -555 12 -336 1 -558 6 -558 11 0 6 33 25 73 44 243 116 332 157 343 157 4 0 15 7 24 15 14 12 128 14 815 15 740 2 800 0 811 -15 11 -15 16 -16 43 -4 18 8 31 21 31 31 0 16 -11 18 -86 18 -63 0 -94 5 -115 17 -26 16 -29 16 -47 0 -17 -16 -70 -17 -662 -14 -504 1 -644 5 -648 15 -2 7 5 12 16 12 11 0 33 6 49 14 15 8 46 22 68 31 42 18 110 50 135 65 8 4 36 18 62 29 25 11 49 25 53 31 3 5 17 10 30 10 12 0 25 7 29 15 3 8 16 15 28 15 13 0 32 7 42 15 11 8 28 15 38 15 10 0 18 4 18 10 0 5 16 12 35 16 19 3 38 10 41 15 6 10 88 49 102 49 5 0 15 7 22 15 7 8 23 15 36 15 13 0 24 4 24 8 0 7 91 52 106 52 3 0 12 7 20 15 9 8 24 15 35 15 10 0 19 4 19 9 0 5 14 12 31 16 17 4 33 13 36 21 3 8 12 14 21 14 26 0 151 64 152 78 0 16 -35 16 -52 0 -22 -21 -78 -48 -98 -48 -9 0 -23 -7 -30 -15 -7 -8 -18 -15 -25 -15 -7 0 -37 -13 -68 -30 -31 -16 -64 -30 -72 -30 -9 0 -18 -7 -21 -15 -4 -8 -16 -15 -29 -15 -12 0 -28 -7 -35 -15 -7 -8 -20 -15 -30 -15 -10 0 -23 -7 -30 -15 -7 -8 -18 -15 -25 -15 -7 0 -40 -13 -73 -30 -34 -16 -65 -30 -70 -30 -5 0 -15 -7 -22 -15 -7 -8 -21 -15 -31 -15 -9 0 -24 -7 -33 -15 -8 -8 -20 -15 -26 -15 -11 0 -48 -17 -90 -41 -8 -5 -22 -12 -30 -15 -27 -10 -85 -36 -100 -45 -8 -5 -22 -12 -30 -15 -8 -3 -42 -19 -75 -35 -33 -16 -65 -29 -71 -29 -7 0 -17 -7 -24 -15 -7 -8 -23 -15 -36 -15 -13 0 -27 -6 -31 -13 -21 -34 -96 -49 -279 -54 -195 -6 -254 -1 -254 22 0 9 10 15 23 15 13 0 32 7 43 15 10 8 26 15 35 15 9 0 22 7 29 15 7 8 20 15 30 15 10 0 23 7 30 15 7 8 23 15 35 15 12 0 28 7 35 15 7 8 20 15 30 15 10 0 23 7 30 15 7 8 23 15 35 15 12 0 28 7 35 15 7 8 19 15 27 15 13 0 48 15 93 41 8 5 22 12 30 15 35 13 205 91 230 105 8 5 22 12 30 15 15 5 118 53 173 80 16 8 34 14 41 14 20 0 60 47 45 52 -8 3 -253 3 -545 0 -346 -3 -534 -1 -538 6 -8 13 8 24 74 51 30 13 91 40 135 61 44 21 107 50 140 65 33 15 78 36 100 46 39 19 68 19 818 17 509 -2 777 -6 777 -13 0 -5 -31 -25 -68 -44 -37 -18 -74 -37 -82 -42 -8 -5 -25 -13 -37 -18 -28 -13 -39 -31 -17 -31 24 0 104 39 104 51 0 5 7 9 15 9 17 0 93 38 100 50 3 5 19 11 35 15 20 4 30 13 30 24 0 14 -11 20 -46 25 -26 3 -370 6 -765 6 -673 0 -792 4 -702 26 15 4 57 20 93 37 36 16 79 36 95 43 46 20 163 73 230 104 33 15 85 39 115 53 280 129 429 200 545 260 17 9 37 18 45 21 8 3 23 10 33 16 9 5 25 15 35 20 9 6 24 13 32 16 8 3 22 10 30 15 8 5 20 11 25 13 6 2 17 7 25 10 8 4 35 17 59 31 24 14 50 25 58 25 7 0 16 7 19 15 3 8 21 17 40 21 27 5 34 11 34 30 l0 24 -302 2 c-167 1 -520 0 -785 -1 -331 -1 -483 1 -488 9 -3 5 2 13 12 16 10 3 30 12 45 20 14 8 33 14 41 14 8 0 20 7 27 15 7 8 20 15 30 15 10 0 23 7 30 15 7 8 23 15 35 15 12 0 28 7 35 15 7 8 21 15 32 15 11 0 26 7 34 15 9 8 24 15 33 15 10 0 24 7 31 15 7 8 20 15 29 15 10 0 26 7 37 15 10 8 26 15 35 15 9 0 22 7 29 15 7 8 19 15 28 15 19 0 100 38 108 51 3 5 16 9 28 9 13 0 29 7 36 15 7 8 20 15 30 15 10 0 23 7 30 15 7 8 20 15 30 15 10 0 23 7 30 15 7 8 23 15 35 15 12 0 28 7 35 15 7 8 20 15 30 15 10 0 23 7 30 15 7 8 23 15 35 15 12 0 28 7 35 15 7 8 20 15 30 15 10 0 23 7 30 15 7 8 21 15 32 15 10 0 21 7 24 15 4 8 16 15 29 15 12 0 28 7 35 15 7 8 21 15 32 15 10 0 21 7 24 15 4 8 17 15 30 15 14 0 27 7 30 15 4 8 14 15 24 15 11 0 22 5 25 10 3 6 -3 10 -14 10 -11 0 -23 -4 -26 -10 -3 -5 -15 -10 -25 -10 -10 0 -25 -6 -32 -13 -7 -8 -26 -17 -41 -21 -15 -3 -27 -11 -27 -16 0 -6 -11 -10 -24 -10 -13 0 -29 -7 -36 -15 -7 -8 -23 -15 -35 -15 -12 0 -28 -7 -35 -15 -7 -8 -20 -15 -30 -15 -10 0 -23 -7 -30 -15 -7 -8 -19 -15 -26 -15 -8 0 -40 -14 -71 -30 -31 -16 -61 -30 -68 -30 -7 0 -18 -7 -25 -15 -7 -8 -23 -15 -35 -15 -12 0 -28 -7 -35 -15 -7 -8 -19 -15 -27 -15 -13 0 -48 -15 -93 -41 -8 -5 -22 -12 -30 -15 -8 -3 -28 -11 -45 -19 -93 -41 -125 -58 -131 -66 -3 -5 -16 -9 -28 -9 -13 0 -29 -7 -36 -15 -7 -8 -20 -15 -30 -15 -10 0 -23 -7 -30 -15 -7 -8 -21 -15 -31 -15 -9 0 -24 -7 -33 -15 -8 -8 -23 -15 -34 -15 -11 0 -25 -7 -32 -15 -7 -8 -23 -15 -35 -15 -12 0 -28 -7 -35 -15 -7 -8 -23 -15 -35 -15 -12 0 -28 -7 -35 -15 -7 -8 -20 -15 -30 -15 -10 0 -23 -7 -30 -15 -7 -8 -20 -15 -30 -15 -10 0 -23 -7 -30 -15 -11 -13 -46 -15 -233 -13 -165 2 -221 6 -225 16 -2 7 6 12 21 12 13 0 30 7 37 15 7 8 23 15 35 15 12 0 28 7 35 15 7 8 20 15 30 15 10 0 23 7 30 15 7 8 21 15 31 15 10 0 21 4 24 10 3 5 24 14 45 20 22 6 40 15 40 20 0 6 8 10 18 10 10 0 27 7 38 15 10 8 26 15 35 15 9 0 22 7 29 15 7 8 23 15 37 15 13 0 26 7 29 15 4 8 16 15 29 15 12 0 28 7 35 15 7 8 23 15 35 15 12 0 28 7 35 15 7 8 20 15 30 15 10 0 23 7 30 15 7 8 20 15 29 15 10 0 26 7 37 15 10 8 26 15 35 15 9 0 22 7 29 15 7 8 22 15 33 15 11 0 28 6 36 13 9 8 51 28 94 47 43 18 76 38 74 44 -3 8 -161 11 -548 11 -340 0 -545 4 -548 10 -4 10 2 14 69 43 45 20 112 51 265 122 44 20 94 42 110 48 22 8 237 12 762 14 402 2 735 6 739 11 4 4 4 10 0 15 -4 4 -311 8 -682 10 -371 2 -674 7 -674 12 0 5 10 12 23 15 12 4 49 19 82 35 99 46 198 92 230 106 17 7 89 41 160 74 72 34 144 68 160 75 17 7 59 27 95 44 36 16 94 43 130 59 76 35 149 69 170 82 8 4 33 16 55 25 22 9 80 37 128 61 49 24 94 44 102 44 7 0 15 7 19 15 3 8 13 15 22 15 17 0 64 24 103 53 13 9 32 17 42 17 13 0 19 7 19 24 0 22 -5 24 -67 30 -38 3 -124 8 -193 11 -109 5 -127 9 -139 26 -16 23 -39 25 -55 4 -9 -12 -91 -14 -529 -17 -379 -2 -517 0 -517 8 0 6 27 22 59 34 51 19 71 35 71 56 0 2 -20 4 -45 4 -34 0 -45 -4 -45 -15 0 -9 -8 -18 -17 -22 -10 -3 -55 -23 -100 -45 l-81 -38 -224 2 c-129 2 -215 6 -203 11 11 5 27 12 35 17 24 14 93 47 113 53 9 4 17 13 17 22 0 11 -11 15 -40 15 -25 0 -40 -5 -40 -12 0 -7 -30 -27 -68 -45 -141 -67 -92 -62 -685 -63 -298 0 -548 -1 -556 0 -17 0 55 50 73 50 8 0 19 6 26 14 6 8 21 16 33 18 12 2 23 11 25 21 3 14 -4 17 -32 17 -29 0 -36 -4 -36 -20 0 -14 -7 -20 -24 -20 -13 0 -29 -7 -36 -15 -7 -8 -18 -15 -24 -15 -25 0 -121 -56 -121 -70 0 -13 69 -15 540 -17 297 -1 550 -2 563 -3 12 0 22 -4 22 -9 0 -5 -10 -13 -22 -17 -13 -4 -72 -30 -133 -59 -60 -29 -146 -69 -190 -89 -44 -20 -88 -41 -97 -46 -10 -6 -32 -10 -50 -10 -17 0 -40 -7 -50 -16 -13 -12 -21 -14 -30 -6 -12 9 -746 23 -1351 25 -186 0 -187 0 -157 18 16 10 41 21 55 25 14 3 25 9 25 13 0 3 24 17 53 30 28 12 59 27 67 32 8 5 22 12 30 15 8 3 22 10 30 15 8 5 22 12 30 15 8 3 22 10 30 15 8 5 22 12 30 15 8 3 22 10 30 15 8 5 22 12 30 15 32 13 146 66 160 75 8 5 22 12 30 15 41 15 103 50 104 59 0 6 -14 11 -31 13 -24 2 -33 -1 -33 -12z m3668 -158 c2 -12 -3 -18 -15 -18 -11 0 -28 -7 -39 -15 -10 -8 -26 -15 -35 -15 -9 0 -22 -7 -29 -15 -7 -8 -23 -15 -35 -15 -12 0 -28 -7 -35 -15 -7 -8 -18 -15 -25 -15 -8 0 -26 -7 -42 -14 -15 -8 -35 -17 -43 -20 -8 -3 -22 -10 -30 -15 -25 -14 -195 -92 -230 -105 -8 -3 -24 -11 -35 -18 -40 -23 -50 -28 -65 -34 -30 -11 -236 -106 -430 -197 -52 -25 -122 -57 -155 -72 -146 -66 -221 -101 -245 -115 -74 -42 -113 -48 -331 -52 l-216 -3 21 22 c11 13 28 23 36 23 8 0 24 7 34 15 11 8 28 15 38 15 10 0 21 7 24 15 4 8 15 15 26 15 11 0 32 6 46 13 15 8 42 21 60 30 19 9 39 17 47 17 7 0 18 7 25 15 7 8 23 15 35 15 12 0 28 7 35 15 7 8 20 15 30 15 10 0 23 7 30 15 7 8 23 15 35 15 12 0 28 7 35 15 7 8 16 15 21 15 5 0 40 14 77 31 37 18 94 44 127 60 33 15 103 48 155 72 52 24 105 48 118 52 14 4 22 13 20 23 -3 14 -56 16 -523 17 -332 0 -526 -3 -537 -9 -9 -6 -20 -7 -24 -3 -8 8 34 57 50 57 5 0 42 15 80 34 66 31 142 67 256 119 25 12 54 24 65 28 11 4 373 6 805 6 739 -2 785 -3 788 -19z m-1512 -251 c292 -2 398 -5 401 -14 2 -6 -6 -14 -19 -18 -13 -4 -66 -28 -118 -53 -52 -24 -108 -51 -125 -58 -16 -7 -59 -26 -95 -42 -36 -16 -72 -32 -80 -36 -8 -3 -22 -10 -30 -15 -35 -22 -148 -71 -163 -71 -9 0 -17 -4 -17 -9 0 -5 -10 -13 -22 -16 -13 -4 -50 -19 -83 -35 -33 -15 -103 -48 -155 -73 -52 -25 -104 -48 -115 -52 -11 -4 -236 -8 -500 -11 -264 -2 -504 -6 -532 -10 -35 -3 -53 -2 -53 5 0 6 7 11 15 11 8 0 23 9 32 20 10 11 23 20 29 20 7 0 25 7 41 14 15 8 35 17 43 20 8 3 22 10 30 15 45 26 80 41 93 41 8 0 20 7 27 15 7 8 20 15 30 15 10 0 23 7 30 15 7 8 20 15 29 15 14 0 116 45 161 71 8 5 22 12 30 15 8 3 27 12 42 20 14 8 33 14 42 14 9 0 16 4 16 10 0 5 12 13 26 16 15 4 50 20 80 35 29 16 60 29 69 29 8 0 15 4 15 10 0 5 12 13 26 16 14 4 47 18 73 32 86 46 109 50 223 45 58 -3 285 -6 504 -6z m-65 -792 c266 -2 486 -5 488 -5 11 0 -72 -50 -83 -50 -8 0 -19 -7 -26 -15 -7 -8 -20 -15 -30 -15 -9 0 -42 -13 -73 -30 -31 -16 -63 -30 -71 -30 -7 0 -19 -7 -26 -15 -7 -8 -23 -15 -35 -15 -12 0 -28 -7 -35 -15 -7 -8 -20 -15 -29 -15 -9 0 -25 -7 -35 -15 -11 -8 -28 -15 -38 -15 -10 0 -18 -4 -18 -9 0 -5 -10 -13 -22 -16 -36 -11 -107 -46 -114 -56 -3 -5 -16 -9 -28 -9 -13 0 -29 -7 -36 -15 -7 -8 -18 -15 -25 -15 -8 0 -26 -7 -42 -14 -15 -8 -35 -17 -43 -20 -8 -3 -23 -10 -32 -16 -10 -5 -26 -15 -35 -20 -10 -6 -25 -13 -33 -16 -8 -4 -42 -19 -76 -35 l-61 -29 -539 2 c-353 2 -538 6 -536 13 1 6 13 13 26 16 13 4 77 32 142 64 66 32 134 64 151 72 18 7 50 21 70 30 21 9 45 20 53 25 8 4 22 11 30 14 24 9 69 30 142 63 37 18 98 46 135 63 38 17 75 35 83 39 8 5 22 12 30 15 8 4 52 24 96 45 45 22 97 39 115 39 19 0 41 4 49 9 8 6 17 8 21 5 4 -2 224 -6 490 -9z m-710 -9 c0 -8 -29 -28 -61 -41 -8 -4 -22 -11 -30 -16 -8 -5 -22 -12 -30 -15 -23 -8 -68 -28 -140 -62 -36 -17 -72 -33 -80 -36 -8 -3 -22 -10 -30 -15 -17 -11 -187 -88 -230 -105 -8 -3 -22 -10 -30 -15 -8 -5 -45 -23 -82 -40 -38 -17 -96 -44 -130 -60 -35 -16 -70 -32 -78 -35 -8 -3 -22 -10 -30 -14 -20 -12 -80 -39 -103 -46 -10 -3 -17 -11 -15 -16 2 -8 180 -11 560 -10 306 0 559 -3 562 -8 2 -4 -19 -19 -47 -32 -29 -13 -108 -50 -177 -82 -69 -33 -141 -66 -160 -75 -19 -9 -47 -22 -62 -30 -22 -11 -169 -13 -830 -13 -441 0 -806 4 -811 9 -5 5 4 13 20 20 15 6 35 15 43 19 42 24 83 42 95 42 7 0 18 7 25 15 7 8 23 15 35 15 12 0 28 7 35 15 7 8 20 15 30 15 10 0 23 7 30 15 7 8 17 15 24 15 6 0 40 14 76 31 36 17 79 36 95 44 17 7 59 26 95 43 36 16 72 33 80 36 8 3 22 10 30 15 8 5 22 12 30 15 8 3 22 10 30 15 8 5 44 23 80 39 107 50 194 89 210 96 8 3 22 10 30 15 8 5 31 16 50 24 19 9 78 36 130 60 52 25 102 48 110 51 8 3 22 10 30 14 8 5 31 16 50 24 19 9 62 29 95 45 l60 29 208 -1 c114 0 207 -4 208 -9z m2274 -530 c24 -9 17 -26 -9 -26 -14 0 -27 -4 -30 -9 -5 -8 -56 -34 -106 -55 -8 -3 -22 -10 -30 -14 -8 -5 -32 -16 -52 -26 -21 -9 -53 -22 -70 -30 -18 -8 -40 -17 -48 -20 -8 -3 -22 -10 -30 -15 -14 -8 -57 -28 -210 -99 -36 -16 -96 -44 -135 -62 -83 -38 -125 -57 -145 -64 -8 -3 -22 -10 -30 -15 -8 -4 -44 -22 -80 -39 -36 -16 -110 -51 -165 -77 -55 -25 -113 -52 -130 -59 -16 -7 -59 -27 -95 -44 -36 -17 -72 -33 -80 -36 -8 -3 -22 -10 -30 -15 -52 -31 -103 -41 -235 -46 -173 -6 -285 2 -285 21 0 8 9 14 19 14 11 0 32 6 48 14 80 40 267 127 303 140 8 3 22 10 30 15 8 5 45 23 83 40 66 30 134 62 260 120 75 35 147 69 167 80 61 33 81 41 102 41 33 0 50 14 42 34 -5 12 -13 16 -28 11 -11 -3 -265 -9 -563 -12 -413 -5 -543 -3 -543 6 0 6 10 16 23 21 12 6 29 14 37 19 8 5 44 23 80 40 36 16 109 50 162 75 53 26 103 46 110 46 8 0 19 5 26 12 7 7 33 15 60 18 62 7 1558 4 1577 -4z m-1110 -276 c3 -6 -2 -13 -12 -16 -10 -3 -32 -12 -50 -20 -17 -8 -35 -14 -41 -14 -5 0 -15 -7 -22 -15 -7 -8 -20 -15 -30 -15 -10 0 -23 -7 -30 -15 -7 -8 -20 -15 -29 -15 -9 0 -43 -13 -76 -29 -160 -78 -279 -133 -360 -167 -37 -15 -224 -103 -245 -115 -91 -51 -62 -49 -631 -49 -343 0 -530 4 -534 10 -3 6 2 13 12 16 10 3 32 11 48 19 17 7 37 16 45 19 8 3 22 10 30 15 14 8 40 20 122 56 44 19 119 54 138 64 8 5 31 16 50 24 49 21 148 67 260 120 52 25 102 48 110 51 8 3 22 10 30 15 8 5 22 12 30 15 8 3 22 10 30 14 75 43 46 41 612 42 350 0 539 -4 543 -10z m-1227 -786 c40 -6 41 -34 2 -44 -14 -4 -50 -18 -80 -33 -30 -14 -62 -28 -70 -31 -8 -3 -22 -10 -30 -15 -8 -5 -44 -23 -80 -39 -36 -16 -94 -43 -130 -60 -36 -16 -72 -33 -80 -36 -8 -3 -22 -10 -30 -15 -8 -5 -31 -16 -50 -24 -19 -9 -78 -36 -130 -60 -52 -25 -135 -64 -185 -86 -118 -55 -120 -56 -120 -72 0 -11 92 -13 546 -10 541 3 603 -1 537 -29 -13 -5 -30 -14 -38 -19 -8 -6 -45 -24 -82 -40 -122 -56 -202 -93 -263 -122 l-60 -29 -808 0 c-711 0 -807 2 -807 15 0 8 8 15 17 15 16 0 60 19 188 81 22 11 47 24 55 28 8 5 51 24 95 42 44 18 87 38 96 46 8 7 25 13 36 13 11 0 26 7 33 15 7 8 17 15 24 15 6 0 38 13 71 29 33 16 67 32 75 35 8 3 22 10 30 15 15 9 73 35 100 45 8 3 22 10 30 15 8 5 47 24 85 41 39 18 96 45 128 61 31 16 64 29 72 29 9 0 18 7 21 15 4 8 13 15 22 15 19 0 100 38 108 51 3 5 16 9 28 9 13 0 29 7 36 15 7 8 18 15 24 15 6 0 38 13 71 29 33 16 67 32 75 35 8 3 22 10 30 15 42 25 74 31 175 34 110 3 171 1 233 -9z m1067 7 c117 -1 192 -6 180 -11 -12 -4 -27 -15 -34 -24 -7 -9 -19 -16 -27 -16 -15 0 -86 -32 -94 -42 -3 -3 -17 -9 -32 -13 -15 -4 -32 -13 -39 -21 -6 -8 -17 -14 -24 -14 -8 0 -26 -7 -42 -14 -15 -8 -35 -17 -43 -20 -8 -3 -22 -10 -30 -15 -8 -5 -22 -12 -30 -15 -8 -3 -22 -10 -30 -15 -8 -5 -35 -17 -60 -27 -25 -10 -52 -24 -61 -31 -8 -7 -25 -13 -36 -13 -11 0 -26 -7 -33 -15 -7 -8 -18 -15 -25 -15 -8 0 -26 -7 -42 -14 -15 -8 -35 -17 -43 -20 -8 -3 -22 -10 -30 -15 -8 -5 -36 -19 -62 -31 -27 -12 -50 -26 -54 -31 -3 -5 -18 -9 -34 -9 -15 0 -30 -7 -34 -15 -3 -8 -13 -15 -23 -15 -10 0 -27 -7 -37 -15 -17 -13 -100 -15 -558 -15 -296 0 -538 3 -538 8 0 4 24 18 53 31 201 92 389 179 537 248 199 95 401 189 435 204 11 5 38 10 60 11 43 3 504 2 830 -1z m-979 -816 c14 -19 43 -19 68 0 17 13 100 15 557 15 350 0 540 -4 544 -10 3 -6 -2 -13 -12 -16 -22 -7 -58 -22 -143 -62 -64 -30 -157 -73 -202 -92 -13 -5 -30 -14 -38 -19 -8 -5 -31 -16 -50 -24 -19 -8 -66 -30 -105 -48 -181 -84 -239 -110 -275 -123 -8 -3 -22 -10 -30 -15 -8 -5 -22 -12 -30 -15 -8 -3 -22 -10 -30 -15 -8 -5 -22 -12 -30 -15 -8 -3 -22 -10 -30 -15 -75 -43 -50 -41 -609 -41 -465 0 -531 2 -531 15 0 9 9 15 24 15 13 0 29 7 36 15 7 8 17 15 23 15 15 0 96 40 103 51 3 5 16 9 28 9 13 0 29 7 36 15 7 8 18 15 24 15 6 0 38 13 71 29 79 39 186 88 205 95 8 3 22 10 30 15 42 24 79 41 90 41 6 0 18 7 26 15 9 8 24 15 33 15 10 0 24 7 31 15 7 8 20 15 30 15 10 0 23 7 30 15 7 8 18 15 25 15 8 0 26 7 42 14 15 8 36 17 46 20 9 3 17 10 17 16 0 16 -56 12 -70 -5 -7 -8 -20 -15 -30 -15 -10 0 -23 -7 -30 -15 -7 -8 -20 -15 -30 -15 -10 0 -23 -7 -30 -15 -7 -8 -23 -15 -35 -15 -12 0 -28 -7 -35 -15 -7 -8 -20 -15 -30 -15 -10 0 -23 -7 -30 -15 -7 -8 -23 -15 -35 -15 -12 0 -28 -7 -35 -15 -7 -8 -19 -15 -26 -15 -8 0 -40 -13 -71 -29 -32 -16 -65 -32 -73 -35 -8 -3 -22 -10 -30 -14 -8 -5 -33 -17 -55 -27 -22 -9 -47 -21 -55 -26 -8 -5 -27 -14 -42 -20 -16 -6 -28 -15 -28 -20 0 -5 -11 -9 -24 -9 -13 0 -29 -7 -36 -15 -7 -8 -20 -15 -30 -15 -10 0 -23 -7 -30 -15 -7 -8 -23 -15 -37 -15 -13 0 -26 -7 -29 -15 -4 -8 -12 -15 -19 -15 -28 0 -107 -42 -97 -52 6 -6 208 -9 541 -8 426 0 531 -2 531 -12 0 -7 -17 -21 -38 -30 -42 -19 -168 -77 -285 -132 -42 -20 -80 -36 -84 -36 -4 0 -14 -7 -23 -15 -14 -13 -124 -15 -819 -16 -441 0 -805 2 -809 5 -8 9 48 55 66 56 8 0 26 6 40 13 28 15 86 41 112 51 8 3 22 10 30 15 45 26 80 41 93 41 8 0 20 7 27 15 7 8 20 15 30 15 10 0 23 7 30 15 7 8 23 15 35 15 12 0 28 7 35 15 7 8 20 15 30 15 10 0 23 7 30 15 7 8 19 15 27 15 8 0 27 6 41 14 15 8 48 24 74 36 27 12 50 26 54 31 3 5 16 9 29 9 13 0 26 4 29 9 7 11 88 51 103 51 6 0 16 7 23 15 7 8 23 15 35 15 12 0 28 7 35 15 7 8 20 15 30 15 10 0 23 7 30 15 7 8 23 15 37 15 13 0 26 7 29 15 4 8 13 15 22 15 19 0 100 38 108 51 3 5 16 9 28 9 13 0 29 7 36 15 7 8 20 15 30 15 10 0 23 7 30 15 7 8 19 15 27 15 8 0 27 6 41 14 81 42 152 70 187 75 22 3 121 5 220 3 144 -2 182 -6 191 -17z m4 -782 c-1 -18 -29 -43 -47 -43 -11 0 -26 -7 -33 -15 -7 -8 -19 -15 -27 -15 -13 0 -48 -15 -93 -41 -8 -5 -22 -12 -30 -15 -8 -3 -28 -11 -45 -19 -93 -41 -125 -58 -131 -66 -3 -5 -16 -9 -29 -9 -13 0 -26 -4 -29 -9 -7 -11 -88 -51 -103 -51 -6 0 -16 -7 -23 -15 -7 -8 -23 -15 -35 -15 -12 0 -28 -7 -35 -15 -7 -8 -20 -15 -30 -15 -10 0 -23 -7 -30 -15 -7 -8 -19 -15 -27 -15 -8 0 -27 -6 -41 -14 -15 -8 -34 -17 -42 -20 -8 -3 -23 -10 -32 -16 -10 -5 -26 -15 -35 -20 -10 -6 -25 -13 -33 -16 -20 -7 -79 -33 -110 -48 -14 -6 -25 -17 -25 -24 0 -11 109 -13 531 -14 292 -1 537 2 543 7 9 5 12 2 9 -10 -4 -21 -2 -20 -148 -89 -63 -29 -151 -71 -195 -92 l-80 -39 -815 3 c-745 3 -878 7 -814 27 23 8 79 32 116 51 14 8 33 14 41 14 8 0 20 7 27 15 7 8 23 15 35 15 12 0 28 7 35 15 7 8 17 15 24 15 6 0 38 13 71 29 33 16 67 32 75 35 8 3 22 10 30 14 15 9 71 35 100 46 8 3 22 10 30 14 15 9 71 35 100 46 8 3 22 10 30 15 45 26 147 71 161 71 9 0 22 7 29 15 7 8 19 15 28 15 13 0 118 49 172 80 8 5 22 11 30 14 8 3 22 10 30 15 17 11 187 88 230 105 8 3 22 10 30 15 8 5 22 12 30 15 8 3 22 10 30 15 82 47 77 46 305 52 121 3 226 6 233 7 6 1 12 -1 12 -5z m1138 -13 c18 0 15 -20 -5 -26 -10 -3 -31 -12 -48 -19 -16 -8 -37 -16 -45 -19 -8 -3 -22 -10 -30 -15 -15 -9 -73 -35 -100 -45 -8 -3 -22 -10 -30 -15 -15 -9 -73 -35 -100 -45 -8 -3 -22 -10 -30 -15 -8 -5 -22 -12 -30 -15 -8 -3 -22 -10 -30 -15 -45 -26 -80 -41 -93 -41 -8 0 -17 -7 -21 -15 -3 -8 -14 -15 -25 -15 -11 0 -34 -8 -53 -17 -18 -9 -45 -22 -60 -30 -14 -7 -33 -13 -41 -13 -8 0 -20 -7 -27 -15 -7 -8 -20 -15 -30 -15 -10 0 -23 -7 -30 -15 -7 -8 -21 -15 -32 -15 -10 0 -21 -7 -24 -15 -4 -8 -13 -15 -20 -15 -8 0 -33 -9 -55 -20 -38 -20 -59 -21 -577 -23 l-537 -2 21 23 c12 12 28 22 36 22 14 0 84 29 118 50 8 5 22 11 30 14 8 3 22 10 30 15 45 26 80 41 93 41 8 0 17 7 21 15 3 8 16 15 29 15 14 0 30 7 37 15 7 8 21 15 31 15 10 0 20 4 24 9 3 5 19 12 35 16 17 4 30 10 30 15 0 5 10 12 23 15 12 4 36 13 52 20 17 8 37 16 45 19 8 3 22 10 30 15 8 5 22 12 30 15 8 3 22 10 30 15 8 5 36 19 62 31 27 12 50 26 54 31 3 5 16 9 28 9 13 0 29 7 36 15 7 8 18 15 24 15 7 0 27 8 46 18 32 16 76 17 550 14 283 -1 521 -2 528 -2z"/> <path d="M5439 5406 c-2 -2 -54 -5 -114 -6 -140 -3 -205 -9 -205 -22 0 -5 50 -9 123 -9 67 1 133 1 147 1 60 -1 82 2 108 16 l27 14 -27 0 c-14 0 -33 2 -40 5 -8 3 -16 4 -19 1z"/> <path d="M10160 5040 c0 -5 11 -10 25 -10 14 0 25 5 25 10 0 6 -11 10 -25 10 -14 0 -25 -4 -25 -10z"/> <path d="M13 4915 c-17 -19 -16 -35 0 -35 14 0 47 31 47 43 0 13 -35 6 -47 -8z"/> <path d="M13430 4576 c0 -13 -7 -27 -16 -30 -8 -3 -12 -11 -9 -16 5 -8 15 -6 31 4 13 9 32 16 44 16 15 0 20 7 20 25 0 22 -4 25 -35 25 -30 0 -35 -3 -35 -24z"/> <path d="M9345 4311 c-24 -23 70 -28 130 -6 l40 14 -83 -1 c-46 -2 -85 -4 -87 -7z"/> <path d="M55 4120 c-4 -6 -3 -16 3 -22 6 -6 12 -6 17 2 4 6 3 16 -3 22 -6 6 -12 6 -17 -2z"/> <path d="M150 4090 c-11 -7 -2 -10 33 -10 30 0 46 4 42 10 -8 13 -55 13 -75 0z"/> <path d="M95 3370 c-3 -5 3 -10 14 -10 12 0 21 5 21 10 0 6 -6 10 -14 10 -8 0 -18 -4 -21 -10z"/> <path d="M17 3326 c-21 -16 -22 -36 -1 -36 24 0 54 19 54 35 0 18 -29 19 -53 1z"/> <path d="M9203 2733 c-31 -12 -8 -19 53 -17 76 4 100 14 31 14 -25 0 -51 2 -59 4 -7 3 -19 2 -25 -1z"/> <path d="M9680 2730 c-108 -6 -105 -6 64 -8 177 -2 228 2 111 9 -33 2 -112 2 -175 -1z"/> <path d="M10000 2720 c-11 -7 2 -10 43 -10 31 0 57 4 57 10 0 13 -80 13 -100 0z"/> <path d="M10195 2719 c49 -10 179 -9 220 1 18 5 -29 8 -115 8 -102 0 -133 -3 -105 -9z"/> <path d="M160 2590 c-12 -8 -11 -10 8 -10 12 0 22 5 22 10 0 13 -11 13 -30 0z"/> <path d="M24 2517 l-27 -24 64 -6 c35 -3 68 -1 74 4 5 5 -1 9 -18 9 -16 0 -30 8 -37 20 -14 26 -23 25 -56 -3z"/> <path d="M5573 2213 c-18 -2 -33 -8 -33 -14 0 -10 60 -12 84 -3 18 7 12 25 -7 22 -7 0 -27 -3 -44 -5z"/> <path d="M5715 2211 c-10 -18 10 -19 95 -6 l85 13 -87 1 c-48 1 -89 -3 -93 -8z"/> <path d="M95 1738 c-29 -16 -29 -16 -15 -33 17 -21 23 -19 48 15 20 27 21 30 5 30 -10 0 -27 -6 -38 -12z"/> <path d="M380 1700 c0 -5 7 -10 15 -10 8 0 15 5 15 10 0 6 -7 10 -15 10 -8 0 -15 -4 -15 -10z"/> <path d="M240 1690 c0 -5 11 -10 25 -10 14 0 25 5 25 10 0 6 -11 10 -25 10 -14 0 -25 -4 -25 -10z"/> <path d="M13313 1303 c-7 -2 -13 -9 -13 -15 0 -12 41 -6 41 7 1 12 -11 15 -28 8z"/> <path d="M17 129 c-9 -5 -17 -19 -17 -29 0 -15 7 -20 29 -20 36 0 41 8 30 38 -9 24 -16 26 -42 11z"/> </g> </svg> 